<svg xmlns="http://www.w3.org/2000/svg" xmlns:xlink="http://www.w3.org/1999/xlink" width="760" zoomAndPan="magnify" viewBox="0 0 570 574.499983" height="766" preserveAspectRatio="xMidYMid meet" version="1.0"><defs><g/><clipPath id="4ef9b7fec3"><path d="M 0.246094 0 L 569.75 0 L 569.75 574 L 0.246094 574 Z M 0.246094 0 " clip-rule="nonzero"/></clipPath><clipPath id="36f16a84fa"><path d="M 359 218 L 393.921875 218 L 393.921875 239 L 359 239 Z M 359 218 " clip-rule="nonzero"/></clipPath><clipPath id="8254db2bb6"><path d="M 176 191.449219 L 380 191.449219 L 380 292.613281 L 176 292.613281 Z M 176 191.449219 " clip-rule="nonzero"/></clipPath><clipPath id="96e57f7e6d"><path d="M 338 272 L 371 272 L 371 292.613281 L 338 292.613281 Z M 338 272 " clip-rule="nonzero"/></clipPath></defs><g clip-path="url(#4ef9b7fec3)"><path fill="#ffffff" d="M 0.246094 0 L 569.753906 0 L 569.753906 1155.496094 L 0.246094 1155.496094 Z M 0.246094 0 " fill-opacity="1" fill-rule="nonzero"/><path fill="#ffffff" d="M 0.246094 0 L 569.753906 0 L 569.753906 574 L 0.246094 574 Z M 0.246094 0 " fill-opacity="1" fill-rule="nonzero"/><path fill="#000000" d="M 0.246094 0 L 569.753906 0 L 569.753906 574 L 0.246094 574 Z M 0.246094 0 " fill-opacity="1" fill-rule="nonzero"/></g><g clip-path="url(#36f16a84fa)"><path fill="#ffffff" d="M 383.527344 218.539062 L 369.949219 218.539062 C 364.453125 218.539062 359.980469 223 359.980469 228.484375 C 359.980469 233.96875 364.453125 238.433594 369.949219 238.433594 L 383.527344 238.433594 C 389.023438 238.433594 393.496094 233.96875 393.496094 228.484375 C 393.496094 223 389.023438 218.539062 383.527344 218.539062 Z M 383.527344 232.082031 L 369.949219 232.082031 C 367.960938 232.082031 366.34375 230.46875 366.34375 228.484375 C 366.34375 226.5 367.960938 224.886719 369.949219 224.886719 L 383.527344 224.886719 C 385.515625 224.886719 387.132812 226.5 387.132812 228.484375 C 387.132812 230.46875 385.515625 232.082031 383.527344 232.082031 Z M 383.527344 232.082031 " fill-opacity="1" fill-rule="nonzero"/></g><g clip-path="url(#8254db2bb6)"><path fill="#ffffff" d="M 319.46875 272.71875 L 309.902344 272.71875 C 307.898438 272.71875 306.195312 271.183594 306.109375 269.296875 C 306.058594 268.300781 306.414062 267.355469 307.101562 266.640625 C 307.789062 265.917969 308.714844 265.519531 309.710938 265.519531 L 348.3125 265.519531 C 353.8125 265.519531 358.285156 261.058594 358.285156 255.574219 C 358.285156 250.089844 353.8125 245.628906 348.3125 245.628906 L 320.929688 245.628906 C 318.929688 245.628906 317.226562 244.09375 317.136719 242.207031 C 317.089844 241.210938 317.441406 240.265625 318.132812 239.546875 C 318.820312 238.828125 319.746094 238.433594 320.738281 238.433594 L 335.164062 238.433594 C 340.660156 238.433594 345.132812 233.96875 345.132812 228.484375 C 345.132812 223 340.660156 218.539062 335.164062 218.539062 L 304.386719 218.539062 C 302.382812 218.539062 300.679688 217.003906 300.59375 215.121094 C 300.546875 214.121094 300.898438 213.175781 301.585938 212.457031 C 302.273438 211.738281 303.199219 211.34375 304.195312 211.34375 L 369.527344 211.34375 C 372.238281 211.34375 374.867188 210.21875 376.742188 208.265625 C 378.640625 206.277344 379.613281 203.667969 379.484375 200.917969 C 379.234375 195.609375 374.777344 191.449219 369.335938 191.449219 L 244.269531 191.449219 C 242.515625 191.449219 241.089844 192.871094 241.089844 194.625 C 241.089844 196.375 242.515625 197.796875 244.269531 197.796875 L 369.335938 197.796875 C 371.339844 197.796875 373.039062 199.335938 373.128906 201.21875 C 373.175781 202.214844 372.824219 203.160156 372.136719 203.878906 C 371.449219 204.597656 370.523438 204.996094 369.527344 204.996094 L 304.195312 204.996094 C 301.484375 204.996094 298.855469 206.117188 296.980469 208.074219 C 295.082031 210.0625 294.105469 212.667969 294.238281 215.417969 C 294.488281 220.726562 298.945312 224.890625 304.386719 224.890625 L 335.164062 224.890625 C 337.152344 224.890625 338.769531 226.503906 338.769531 228.484375 C 338.769531 230.46875 337.152344 232.082031 335.164062 232.082031 L 320.738281 232.082031 C 318.027344 232.082031 315.398438 233.207031 313.527344 235.164062 C 311.625 237.152344 310.652344 239.757812 310.78125 242.507812 C 311.03125 247.816406 315.488281 251.980469 320.929688 251.980469 L 348.3125 251.980469 C 350.300781 251.980469 351.921875 253.59375 351.921875 255.574219 C 351.921875 257.558594 350.300781 259.175781 348.3125 259.175781 L 309.710938 259.175781 C 306.996094 259.175781 304.367188 260.296875 302.496094 262.253906 C 300.597656 264.238281 299.621094 266.847656 299.75 269.597656 C 300 274.910156 304.460938 279.070312 309.902344 279.070312 L 319.46875 279.070312 C 321.457031 279.070312 323.074219 280.683594 323.074219 282.667969 C 323.074219 284.652344 321.457031 286.261719 319.46875 286.261719 L 186.78125 286.261719 C 184.503906 286.261719 182.652344 284.414062 182.652344 282.140625 L 182.652344 216.84375 L 258.800781 216.84375 C 260.558594 216.84375 261.984375 215.421875 261.984375 213.671875 C 261.984375 211.917969 260.558594 210.496094 258.800781 210.496094 L 182.652344 210.496094 L 182.652344 201.917969 C 182.652344 199.648438 184.503906 197.796875 186.78125 197.796875 L 231.542969 197.796875 C 233.300781 197.796875 234.726562 196.375 234.726562 194.625 C 234.726562 192.871094 233.300781 191.449219 231.542969 191.449219 L 186.78125 191.449219 C 180.996094 191.449219 176.289062 196.148438 176.289062 201.917969 L 176.289062 282.140625 C 176.289062 287.914062 180.996094 292.609375 186.78125 292.609375 L 319.46875 292.609375 C 324.964844 292.609375 329.4375 288.148438 329.4375 282.664062 C 329.4375 277.179688 324.964844 272.71875 319.46875 272.71875 Z M 319.46875 272.71875 " fill-opacity="1" fill-rule="nonzero"/></g><g clip-path="url(#96e57f7e6d)"><path fill="#ffffff" d="M 360.617188 272.71875 L 348.738281 272.71875 C 343.242188 272.71875 338.769531 277.179688 338.769531 282.667969 C 338.769531 288.148438 343.242188 292.609375 348.738281 292.609375 L 360.617188 292.609375 C 366.113281 292.609375 370.585938 288.148438 370.585938 282.667969 C 370.585938 277.179688 366.113281 272.71875 360.617188 272.71875 Z M 360.617188 286.261719 L 348.738281 286.261719 C 346.75 286.261719 345.132812 284.648438 345.132812 282.667969 C 345.132812 280.683594 346.75 279.070312 348.738281 279.070312 L 360.617188 279.070312 C 362.605469 279.070312 364.222656 280.683594 364.222656 282.667969 C 364.222656 284.648438 362.605469 286.261719 360.617188 286.261719 Z M 360.617188 286.261719 " fill-opacity="1" fill-rule="nonzero"/></g><path fill="#ffffff" d="M 285.953125 216.84375 C 287.710938 216.84375 289.132812 215.421875 289.132812 213.671875 C 289.132812 211.917969 287.710938 210.496094 285.953125 210.496094 L 271.953125 210.496094 C 270.195312 210.496094 268.769531 211.917969 268.769531 213.671875 C 268.769531 215.421875 270.195312 216.84375 271.953125 216.84375 Z M 285.953125 216.84375 " fill-opacity="1" fill-rule="nonzero"/><path fill="#ffffff" d="M 193.257812 204.78125 C 193.257812 206.300781 192.023438 207.535156 190.5 207.535156 C 188.976562 207.535156 187.742188 206.300781 187.742188 204.78125 C 187.742188 203.261719 188.976562 202.03125 190.5 202.03125 C 192.023438 202.03125 193.257812 203.261719 193.257812 204.78125 Z M 193.257812 204.78125 " fill-opacity="1" fill-rule="nonzero"/><path fill="#ffffff" d="M 203.4375 204.78125 C 203.4375 206.300781 202.203125 207.535156 200.679688 207.535156 C 199.160156 207.535156 197.925781 206.300781 197.925781 204.78125 C 197.925781 203.261719 199.160156 202.03125 200.679688 202.03125 C 202.203125 202.03125 203.4375 203.261719 203.4375 204.78125 Z M 203.4375 204.78125 " fill-opacity="1" fill-rule="nonzero"/><path fill="#ffffff" d="M 213.621094 204.78125 C 213.621094 206.300781 212.386719 207.535156 210.863281 207.535156 C 209.339844 207.535156 208.105469 206.300781 208.105469 204.78125 C 208.105469 203.261719 209.339844 202.03125 210.863281 202.03125 C 212.386719 202.03125 213.621094 203.261719 213.621094 204.78125 Z M 213.621094 204.78125 " fill-opacity="1" fill-rule="nonzero"/><path fill="#ffffff" d="M 201.019531 228.570312 C 199.78125 227.328125 197.765625 227.328125 196.523438 228.570312 L 187.402344 237.671875 C 186.160156 238.910156 186.160156 240.917969 187.402344 242.160156 L 196.945312 251.683594 C 197.566406 252.300781 198.382812 252.613281 199.195312 252.613281 C 200.011719 252.613281 200.824219 252.300781 201.445312 251.683594 C 202.6875 250.441406 202.6875 248.429688 201.445312 247.195312 L 194.148438 239.914062 L 201.019531 233.058594 C 202.265625 231.820312 202.265625 229.808594 201.019531 228.570312 Z M 201.019531 228.570312 " fill-opacity="1" fill-rule="nonzero"/><path fill="#ffffff" d="M 222.824219 251.683594 C 223.445312 252.300781 224.261719 252.613281 225.074219 252.613281 C 225.890625 252.613281 226.703125 252.300781 227.324219 251.683594 L 236.871094 242.160156 C 238.113281 240.917969 238.113281 238.90625 236.871094 237.671875 L 227.75 228.570312 C 226.507812 227.328125 224.492188 227.328125 223.25 228.570312 C 222.007812 229.808594 222.007812 231.820312 223.25 233.058594 L 230.121094 239.914062 L 222.824219 247.195312 C 221.582031 248.429688 221.582031 250.441406 222.824219 251.683594 Z M 222.824219 251.683594 " fill-opacity="1" fill-rule="nonzero"/><path fill="#ffffff" d="M 207.464844 252.402344 C 208.582031 252.402344 209.664062 251.816406 210.246094 250.773438 L 220.429688 232.574219 C 221.285156 231.042969 220.734375 229.105469 219.203125 228.253906 C 217.667969 227.398438 215.730469 227.945312 214.875 229.476562 L 204.691406 247.679688 C 203.835938 249.210938 204.382812 251.144531 205.917969 252 C 206.410156 252.269531 206.941406 252.402344 207.464844 252.402344 Z M 207.464844 252.402344 " fill-opacity="1" fill-rule="nonzero"/><path fill="#ffffff" d="M 246.921875 248.589844 L 274.496094 248.589844 C 276.253906 248.589844 277.679688 247.167969 277.679688 245.414062 C 277.679688 243.664062 276.253906 242.242188 274.496094 242.242188 L 246.921875 242.242188 C 245.167969 242.242188 243.742188 243.664062 243.742188 245.414062 C 243.742188 247.167969 245.167969 248.589844 246.921875 248.589844 Z M 246.921875 248.589844 " fill-opacity="1" fill-rule="nonzero"/><path fill="#ffffff" d="M 246.921875 233.777344 L 250.316406 233.777344 C 252.074219 233.777344 253.5 232.355469 253.5 230.601562 C 253.5 228.847656 252.074219 227.425781 250.316406 227.425781 L 246.921875 227.425781 C 245.167969 227.425781 243.742188 228.847656 243.742188 230.601562 C 243.742188 232.355469 245.167969 233.777344 246.921875 233.777344 Z M 246.921875 233.777344 " fill-opacity="1" fill-rule="nonzero"/><path fill="#ffffff" d="M 301.4375 245.414062 C 301.4375 243.664062 300.011719 242.242188 298.253906 242.242188 L 285.105469 242.242188 C 283.347656 242.242188 281.921875 243.664062 281.921875 245.414062 C 281.921875 247.167969 283.347656 248.589844 285.105469 248.589844 L 298.253906 248.589844 C 300.011719 248.589844 301.4375 247.167969 301.4375 245.414062 Z M 301.4375 245.414062 " fill-opacity="1" fill-rule="nonzero"/><path fill="#ffffff" d="M 253.074219 261.078125 C 253.074219 259.324219 251.648438 257.90625 249.894531 257.90625 L 198.984375 257.90625 C 197.226562 257.90625 195.804688 259.324219 195.804688 261.078125 C 195.804688 262.832031 197.226562 264.253906 198.984375 264.253906 L 249.894531 264.253906 C 251.648438 264.253906 253.074219 262.832031 253.074219 261.078125 Z M 253.074219 261.078125 " fill-opacity="1" fill-rule="nonzero"/><path fill="#ffffff" d="M 285.105469 257.90625 L 260.921875 257.90625 C 259.164062 257.90625 257.742188 259.324219 257.742188 261.078125 C 257.742188 262.832031 259.164062 264.253906 260.921875 264.253906 L 285.105469 264.253906 C 286.859375 264.253906 288.285156 262.832031 288.285156 261.078125 C 288.285156 259.324219 286.859375 257.90625 285.105469 257.90625 Z M 285.105469 257.90625 " fill-opacity="1" fill-rule="nonzero"/><path fill="#ffffff" d="M 198.984375 271.871094 C 197.226562 271.871094 195.804688 273.292969 195.804688 275.046875 C 195.804688 276.796875 197.226562 278.21875 198.984375 278.21875 L 215.53125 278.21875 C 217.285156 278.21875 218.710938 276.796875 218.710938 275.046875 C 218.710938 273.292969 217.285156 271.871094 215.53125 271.871094 Z M 198.984375 271.871094 " fill-opacity="1" fill-rule="nonzero"/><path fill="#ffffff" d="M 225.285156 271.871094 C 223.53125 271.871094 222.105469 273.292969 222.105469 275.046875 C 222.105469 276.796875 223.53125 278.21875 225.285156 278.21875 L 234.621094 278.21875 C 236.375 278.21875 237.800781 276.796875 237.800781 275.046875 C 237.800781 273.292969 236.375 271.871094 234.621094 271.871094 Z M 225.285156 271.871094 " fill-opacity="1" fill-rule="nonzero"/><path fill="#ffffff" d="M 243.105469 278.21875 L 285.105469 278.21875 C 286.859375 278.21875 288.285156 276.796875 288.285156 275.046875 C 288.285156 273.292969 286.859375 271.871094 285.105469 271.871094 L 243.105469 271.871094 C 241.347656 271.871094 239.921875 273.292969 239.921875 275.046875 C 239.921875 276.796875 241.347656 278.21875 243.105469 278.21875 Z M 243.105469 278.21875 " fill-opacity="1" fill-rule="nonzero"/><path fill="#ffffff" d="M 256.890625 231.023438 C 256.890625 232.777344 258.316406 234.199219 260.074219 234.199219 L 285.953125 234.199219 C 287.710938 234.199219 289.132812 232.777344 289.132812 231.023438 C 289.132812 229.273438 287.710938 227.851562 285.953125 227.851562 L 260.074219 227.851562 C 258.316406 227.851562 256.890625 229.273438 256.890625 231.023438 Z M 256.890625 231.023438 " fill-opacity="1" fill-rule="nonzero"/><g fill="#ffffff" fill-opacity="1"><g transform="translate(77.34448, 358.235393)"><g><path d="M 27.921875 -22.046875 C 30.046875 -21.316406 31.789062 -20.113281 33.15625 -18.4375 C 34.519531 -16.757812 35.203125 -14.578125 35.203125 -11.890625 C 35.203125 -7.617188 33.957031 -4.566406 31.46875 -2.734375 C 28.988281 -0.910156 25.960938 0 22.390625 0 L 7.5625 0 C 6.789062 0 6.132812 -0.265625 5.59375 -0.796875 C 5.0625 -1.335938 4.796875 -1.992188 4.796875 -2.765625 L 4.796875 -37.625 C 4.796875 -38.394531 5.0625 -39.046875 5.59375 -39.578125 C 6.132812 -40.117188 6.789062 -40.390625 7.5625 -40.390625 L 22.390625 -40.390625 C 25.890625 -40.390625 28.550781 -39.523438 30.375 -37.796875 C 32.207031 -36.066406 33.125 -33.566406 33.125 -30.296875 C 33.125 -28.453125 32.679688 -26.804688 31.796875 -25.359375 C 30.910156 -23.921875 29.617188 -22.816406 27.921875 -22.046875 Z M 27.171875 -29.421875 C 27.171875 -31.234375 26.679688 -32.609375 25.703125 -33.546875 C 24.722656 -34.492188 23.347656 -34.96875 21.578125 -34.96875 L 10.671875 -34.96875 L 10.671875 -23.71875 L 21.703125 -23.71875 C 23.273438 -23.757812 24.578125 -24.269531 25.609375 -25.25 C 26.648438 -26.226562 27.171875 -27.617188 27.171875 -29.421875 Z M 22.328125 -5.3125 C 24.441406 -5.3125 26.132812 -5.859375 27.40625 -6.953125 C 28.675781 -8.046875 29.3125 -9.691406 29.3125 -11.890625 C 29.3125 -16.160156 26.890625 -18.296875 22.046875 -18.296875 L 10.671875 -18.296875 L 10.671875 -5.3125 Z M 22.328125 -5.3125 "/></g></g></g><g fill="#ffffff" fill-opacity="1"><g transform="translate(115.021271, 358.235393)"><g><path d="M 28.625 -30.640625 C 29.425781 -30.640625 30.085938 -30.378906 30.609375 -29.859375 C 31.128906 -29.335938 31.390625 -28.65625 31.390625 -27.8125 L 31.390625 -2.765625 C 31.390625 -1.992188 31.128906 -1.335938 30.609375 -0.796875 C 30.085938 -0.265625 29.425781 0 28.625 0 C 27.8125 0 27.15625 -0.257812 26.65625 -0.78125 C 26.15625 -1.300781 25.90625 -1.960938 25.90625 -2.765625 L 25.90625 -4.265625 C 24.90625 -2.921875 23.539062 -1.773438 21.8125 -0.828125 C 20.082031 0.109375 18.21875 0.578125 16.21875 0.578125 C 13.601562 0.578125 11.226562 -0.09375 9.09375 -1.4375 C 6.957031 -2.789062 5.28125 -4.664062 4.0625 -7.0625 C 2.851562 -9.46875 2.25 -12.171875 2.25 -15.171875 C 2.25 -18.171875 2.851562 -20.875 4.0625 -23.28125 C 5.28125 -25.6875 6.945312 -27.5625 9.0625 -28.90625 C 11.175781 -30.25 13.503906 -30.921875 16.046875 -30.921875 C 18.078125 -30.921875 19.96875 -30.5 21.71875 -29.65625 C 23.46875 -28.8125 24.863281 -27.734375 25.90625 -26.421875 L 25.90625 -27.8125 C 25.90625 -28.625 26.15625 -29.296875 26.65625 -29.828125 C 27.15625 -30.367188 27.8125 -30.640625 28.625 -30.640625 Z M 16.84375 -4.5 C 18.65625 -4.5 20.265625 -4.957031 21.671875 -5.875 C 23.078125 -6.800781 24.171875 -8.070312 24.953125 -9.6875 C 25.742188 -11.3125 26.140625 -13.140625 26.140625 -15.171875 C 26.140625 -17.171875 25.742188 -18.976562 24.953125 -20.59375 C 24.171875 -22.21875 23.078125 -23.5 21.671875 -24.4375 C 20.265625 -25.375 18.65625 -25.84375 16.84375 -25.84375 C 15.039062 -25.84375 13.4375 -25.378906 12.03125 -24.453125 C 10.625 -23.535156 9.523438 -22.269531 8.734375 -20.65625 C 7.953125 -19.039062 7.5625 -17.210938 7.5625 -15.171875 C 7.5625 -13.140625 7.953125 -11.3125 8.734375 -9.6875 C 9.523438 -8.070312 10.625 -6.800781 12.03125 -5.875 C 13.4375 -4.957031 15.039062 -4.5 16.84375 -4.5 Z M 16.84375 -4.5 "/></g></g></g><g fill="#ffffff" fill-opacity="1"><g transform="translate(150.447836, 358.235393)"><g><path d="M 10.046875 -2.765625 C 10.046875 -1.992188 9.773438 -1.335938 9.234375 -0.796875 C 8.691406 -0.265625 8.035156 0 7.265625 0 C 6.492188 0 5.847656 -0.265625 5.328125 -0.796875 C 4.816406 -1.335938 4.5625 -1.992188 4.5625 -2.765625 L 4.5625 -39.9375 C 4.5625 -40.695312 4.828125 -41.347656 5.359375 -41.890625 C 5.898438 -42.429688 6.554688 -42.703125 7.328125 -42.703125 C 8.097656 -42.703125 8.742188 -42.429688 9.265625 -41.890625 C 9.785156 -41.347656 10.046875 -40.695312 10.046875 -39.9375 Z M 10.046875 -2.765625 "/></g></g></g><g fill="#ffffff" fill-opacity="1"><g transform="translate(165.045433, 358.235393)"><g><path d="M 28.625 -30.640625 C 29.425781 -30.640625 30.085938 -30.378906 30.609375 -29.859375 C 31.128906 -29.335938 31.390625 -28.65625 31.390625 -27.8125 L 31.390625 -2.765625 C 31.390625 -1.992188 31.128906 -1.335938 30.609375 -0.796875 C 30.085938 -0.265625 29.425781 0 28.625 0 C 27.8125 0 27.15625 -0.257812 26.65625 -0.78125 C 26.15625 -1.300781 25.90625 -1.960938 25.90625 -2.765625 L 25.90625 -4.265625 C 24.90625 -2.921875 23.539062 -1.773438 21.8125 -0.828125 C 20.082031 0.109375 18.21875 0.578125 16.21875 0.578125 C 13.601562 0.578125 11.226562 -0.09375 9.09375 -1.4375 C 6.957031 -2.789062 5.28125 -4.664062 4.0625 -7.0625 C 2.851562 -9.46875 2.25 -12.171875 2.25 -15.171875 C 2.25 -18.171875 2.851562 -20.875 4.0625 -23.28125 C 5.28125 -25.6875 6.945312 -27.5625 9.0625 -28.90625 C 11.175781 -30.25 13.503906 -30.921875 16.046875 -30.921875 C 18.078125 -30.921875 19.96875 -30.5 21.71875 -29.65625 C 23.46875 -28.8125 24.863281 -27.734375 25.90625 -26.421875 L 25.90625 -27.8125 C 25.90625 -28.625 26.15625 -29.296875 26.65625 -29.828125 C 27.15625 -30.367188 27.8125 -30.640625 28.625 -30.640625 Z M 16.84375 -4.5 C 18.65625 -4.5 20.265625 -4.957031 21.671875 -5.875 C 23.078125 -6.800781 24.171875 -8.070312 24.953125 -9.6875 C 25.742188 -11.3125 26.140625 -13.140625 26.140625 -15.171875 C 26.140625 -17.171875 25.742188 -18.976562 24.953125 -20.59375 C 24.171875 -22.21875 23.078125 -23.5 21.671875 -24.4375 C 20.265625 -25.375 18.65625 -25.84375 16.84375 -25.84375 C 15.039062 -25.84375 13.4375 -25.378906 12.03125 -24.453125 C 10.625 -23.535156 9.523438 -22.269531 8.734375 -20.65625 C 7.953125 -19.039062 7.5625 -17.210938 7.5625 -15.171875 C 7.5625 -13.140625 7.953125 -11.3125 8.734375 -9.6875 C 9.523438 -8.070312 10.625 -6.800781 12.03125 -5.875 C 13.4375 -4.957031 15.039062 -4.5 16.84375 -4.5 Z M 16.84375 -4.5 "/></g></g></g><g fill="#ffffff" fill-opacity="1"><g transform="translate(200.471997, 358.235393)"><g><path d="M 1.390625 11.375 C 0.648438 11.375 0.0390625 11.125 -0.4375 10.625 C -0.914062 10.125 -1.15625 9.523438 -1.15625 8.828125 L -1.15625 8.3125 C -1.15625 7.039062 -0.363281 6.210938 1.21875 5.828125 C 3.675781 5.140625 4.90625 3.21875 4.90625 0.0625 L 4.90625 -27.46875 C 4.90625 -28.238281 5.164062 -28.890625 5.6875 -29.421875 C 6.207031 -29.960938 6.867188 -30.234375 7.671875 -30.234375 C 8.441406 -30.234375 9.085938 -29.960938 9.609375 -29.421875 C 10.128906 -28.890625 10.390625 -28.238281 10.390625 -27.46875 L 10.390625 1.4375 C 10.390625 3.4375 9.972656 5.1875 9.140625 6.6875 C 8.316406 8.1875 7.210938 9.34375 5.828125 10.15625 C 4.441406 10.96875 2.960938 11.375 1.390625 11.375 Z M 7.625 -34.328125 C 6.507812 -34.328125 5.710938 -34.53125 5.234375 -34.9375 C 4.753906 -35.34375 4.515625 -35.988281 4.515625 -36.875 L 4.515625 -37.796875 C 4.515625 -38.722656 4.769531 -39.375 5.28125 -39.75 C 5.800781 -40.132812 6.601562 -40.328125 7.6875 -40.328125 C 8.757812 -40.328125 9.535156 -40.125 10.015625 -39.71875 C 10.492188 -39.320312 10.734375 -38.679688 10.734375 -37.796875 L 10.734375 -36.875 C 10.734375 -35.945312 10.484375 -35.289062 9.984375 -34.90625 C 9.484375 -34.519531 8.695312 -34.328125 7.625 -34.328125 Z M 7.625 -34.328125 "/></g></g></g><g fill="#ffffff" fill-opacity="1"><g transform="translate(215.53117, 358.235393)"><g><path d="M 9.296875 -2.765625 C 9.296875 -1.992188 9.035156 -1.335938 8.515625 -0.796875 C 7.992188 -0.265625 7.328125 0 6.515625 0 C 5.742188 0 5.097656 -0.265625 4.578125 -0.796875 C 4.066406 -1.335938 3.8125 -1.992188 3.8125 -2.765625 L 3.8125 -27.75 C 3.8125 -28.519531 4.066406 -29.175781 4.578125 -29.71875 C 5.097656 -30.257812 5.742188 -30.53125 6.515625 -30.53125 C 7.328125 -30.53125 7.992188 -30.257812 8.515625 -29.71875 C 9.035156 -29.175781 9.296875 -28.519531 9.296875 -27.75 Z M 6.515625 -34.328125 C 5.398438 -34.328125 4.601562 -34.53125 4.125 -34.9375 C 3.644531 -35.34375 3.40625 -35.988281 3.40625 -36.875 L 3.40625 -37.796875 C 3.40625 -38.722656 3.660156 -39.375 4.171875 -39.75 C 4.691406 -40.132812 5.492188 -40.328125 6.578125 -40.328125 C 7.648438 -40.328125 8.425781 -40.125 8.90625 -39.71875 C 9.382812 -39.320312 9.625 -38.679688 9.625 -37.796875 L 9.625 -36.875 C 9.625 -35.945312 9.375 -35.289062 8.875 -34.90625 C 8.375 -34.519531 7.585938 -34.328125 6.515625 -34.328125 Z M 6.515625 -34.328125 "/></g></g></g><g fill="#ffffff" fill-opacity="1"><g transform="translate(228.628605, 358.235393)"><g/></g></g><g fill="#ffffff" fill-opacity="1"><g transform="translate(244.610945, 358.235393)"><g><path d="M 27.921875 -22.046875 C 30.046875 -21.316406 31.789062 -20.113281 33.15625 -18.4375 C 34.519531 -16.757812 35.203125 -14.578125 35.203125 -11.890625 C 35.203125 -7.617188 33.957031 -4.566406 31.46875 -2.734375 C 28.988281 -0.910156 25.960938 0 22.390625 0 L 7.5625 0 C 6.789062 0 6.132812 -0.265625 5.59375 -0.796875 C 5.0625 -1.335938 4.796875 -1.992188 4.796875 -2.765625 L 4.796875 -37.625 C 4.796875 -38.394531 5.0625 -39.046875 5.59375 -39.578125 C 6.132812 -40.117188 6.789062 -40.390625 7.5625 -40.390625 L 22.390625 -40.390625 C 25.890625 -40.390625 28.550781 -39.523438 30.375 -37.796875 C 32.207031 -36.066406 33.125 -33.566406 33.125 -30.296875 C 33.125 -28.453125 32.679688 -26.804688 31.796875 -25.359375 C 30.910156 -23.921875 29.617188 -22.816406 27.921875 -22.046875 Z M 27.171875 -29.421875 C 27.171875 -31.234375 26.679688 -32.609375 25.703125 -33.546875 C 24.722656 -34.492188 23.347656 -34.96875 21.578125 -34.96875 L 10.671875 -34.96875 L 10.671875 -23.71875 L 21.703125 -23.71875 C 23.273438 -23.757812 24.578125 -24.269531 25.609375 -25.25 C 26.648438 -26.226562 27.171875 -27.617188 27.171875 -29.421875 Z M 22.328125 -5.3125 C 24.441406 -5.3125 26.132812 -5.859375 27.40625 -6.953125 C 28.675781 -8.046875 29.3125 -9.691406 29.3125 -11.890625 C 29.3125 -16.160156 26.890625 -18.296875 22.046875 -18.296875 L 10.671875 -18.296875 L 10.671875 -5.3125 Z M 22.328125 -5.3125 "/></g></g></g><g fill="#ffffff" fill-opacity="1"><g transform="translate(282.287736, 358.235393)"><g><path d="M 32.71875 -15.125 C 32.71875 -12.125 32.039062 -9.429688 30.6875 -7.046875 C 29.34375 -4.660156 27.507812 -2.789062 25.1875 -1.4375 C 22.863281 -0.09375 20.296875 0.578125 17.484375 0.578125 C 14.671875 0.578125 12.101562 -0.09375 9.78125 -1.4375 C 7.457031 -2.789062 5.617188 -4.660156 4.265625 -7.046875 C 2.921875 -9.429688 2.25 -12.125 2.25 -15.125 C 2.25 -18.125 2.921875 -20.832031 4.265625 -23.25 C 5.617188 -25.675781 7.457031 -27.5625 9.78125 -28.90625 C 12.101562 -30.25 14.671875 -30.921875 17.484375 -30.921875 C 20.296875 -30.921875 22.863281 -30.25 25.1875 -28.90625 C 27.507812 -27.5625 29.34375 -25.675781 30.6875 -23.25 C 32.039062 -20.832031 32.71875 -18.125 32.71875 -15.125 Z M 27.234375 -15.125 C 27.234375 -17.195312 26.800781 -19.050781 25.9375 -20.6875 C 25.070312 -22.320312 23.898438 -23.585938 22.421875 -24.484375 C 20.941406 -25.390625 19.296875 -25.84375 17.484375 -25.84375 C 15.671875 -25.84375 14.023438 -25.390625 12.546875 -24.484375 C 11.066406 -23.585938 9.894531 -22.320312 9.03125 -20.6875 C 8.164062 -19.050781 7.734375 -17.195312 7.734375 -15.125 C 7.734375 -13.082031 8.164062 -11.253906 9.03125 -9.640625 C 9.894531 -8.023438 11.066406 -6.765625 12.546875 -5.859375 C 14.023438 -4.953125 15.671875 -4.5 17.484375 -4.5 C 19.296875 -4.5 20.941406 -4.953125 22.421875 -5.859375 C 23.898438 -6.765625 25.070312 -8.023438 25.9375 -9.640625 C 26.800781 -11.253906 27.234375 -13.082031 27.234375 -15.125 Z M 27.234375 -15.125 "/></g></g></g><g fill="#ffffff" fill-opacity="1"><g transform="translate(317.252707, 358.235393)"><g><path d="M 19.5 -30.921875 C 26.425781 -30.921875 29.890625 -26.769531 29.890625 -18.46875 L 29.890625 -2.765625 C 29.890625 -1.992188 29.628906 -1.335938 29.109375 -0.796875 C 28.585938 -0.265625 27.925781 0 27.125 0 C 26.351562 0 25.707031 -0.265625 25.1875 -0.796875 C 24.664062 -1.335938 24.40625 -1.992188 24.40625 -2.765625 L 24.40625 -18.40625 C 24.40625 -20.675781 23.882812 -22.484375 22.84375 -23.828125 C 21.8125 -25.171875 20.117188 -25.84375 17.765625 -25.84375 C 16.234375 -25.84375 14.84375 -25.503906 13.59375 -24.828125 C 12.34375 -24.160156 11.359375 -23.257812 10.640625 -22.125 C 9.929688 -20.988281 9.578125 -19.75 9.578125 -18.40625 L 9.578125 -2.765625 C 9.578125 -1.992188 9.316406 -1.335938 8.796875 -0.796875 C 8.273438 -0.265625 7.613281 0 6.8125 0 C 6 0 5.34375 -0.257812 4.84375 -0.78125 C 4.34375 -1.300781 4.09375 -1.960938 4.09375 -2.765625 L 4.09375 -27.46875 C 4.09375 -28.238281 4.351562 -28.890625 4.875 -29.421875 C 5.394531 -29.960938 6.039062 -30.234375 6.8125 -30.234375 C 7.613281 -30.234375 8.273438 -29.960938 8.796875 -29.421875 C 9.316406 -28.890625 9.578125 -28.238281 9.578125 -27.46875 L 9.578125 -25.453125 C 10.578125 -26.984375 11.972656 -28.273438 13.765625 -29.328125 C 15.554688 -30.390625 17.46875 -30.921875 19.5 -30.921875 Z M 19.5 -30.921875 "/></g></g></g><g fill="#ffffff" fill-opacity="1"><g transform="translate(351.236826, 358.235393)"><g><path d="M 28.625 -30.640625 C 29.425781 -30.640625 30.085938 -30.378906 30.609375 -29.859375 C 31.128906 -29.335938 31.390625 -28.65625 31.390625 -27.8125 L 31.390625 -2.765625 C 31.390625 -1.992188 31.128906 -1.335938 30.609375 -0.796875 C 30.085938 -0.265625 29.425781 0 28.625 0 C 27.8125 0 27.15625 -0.257812 26.65625 -0.78125 C 26.15625 -1.300781 25.90625 -1.960938 25.90625 -2.765625 L 25.90625 -4.265625 C 24.90625 -2.921875 23.539062 -1.773438 21.8125 -0.828125 C 20.082031 0.109375 18.21875 0.578125 16.21875 0.578125 C 13.601562 0.578125 11.226562 -0.09375 9.09375 -1.4375 C 6.957031 -2.789062 5.28125 -4.664062 4.0625 -7.0625 C 2.851562 -9.46875 2.25 -12.171875 2.25 -15.171875 C 2.25 -18.171875 2.851562 -20.875 4.0625 -23.28125 C 5.28125 -25.6875 6.945312 -27.5625 9.0625 -28.90625 C 11.175781 -30.25 13.503906 -30.921875 16.046875 -30.921875 C 18.078125 -30.921875 19.96875 -30.5 21.71875 -29.65625 C 23.46875 -28.8125 24.863281 -27.734375 25.90625 -26.421875 L 25.90625 -27.8125 C 25.90625 -28.625 26.15625 -29.296875 26.65625 -29.828125 C 27.15625 -30.367188 27.8125 -30.640625 28.625 -30.640625 Z M 16.84375 -4.5 C 18.65625 -4.5 20.265625 -4.957031 21.671875 -5.875 C 23.078125 -6.800781 24.171875 -8.070312 24.953125 -9.6875 C 25.742188 -11.3125 26.140625 -13.140625 26.140625 -15.171875 C 26.140625 -17.171875 25.742188 -18.976562 24.953125 -20.59375 C 24.171875 -22.21875 23.078125 -23.5 21.671875 -24.4375 C 20.265625 -25.375 18.65625 -25.84375 16.84375 -25.84375 C 15.039062 -25.84375 13.4375 -25.378906 12.03125 -24.453125 C 10.625 -23.535156 9.523438 -22.269531 8.734375 -20.65625 C 7.953125 -19.039062 7.5625 -17.210938 7.5625 -15.171875 C 7.5625 -13.140625 7.953125 -11.3125 8.734375 -9.6875 C 9.523438 -8.070312 10.625 -6.800781 12.03125 -5.875 C 13.4375 -4.957031 15.039062 -4.5 16.84375 -4.5 Z M 16.84375 -4.5 "/></g></g></g><g fill="#ffffff" fill-opacity="1"><g transform="translate(386.663391, 358.235393)"><g><path d="M 29.375 -30.640625 C 30.175781 -30.640625 30.835938 -30.378906 31.359375 -29.859375 C 31.878906 -29.335938 32.140625 -28.65625 32.140625 -27.8125 L 32.140625 -2.421875 C 32.140625 0.691406 31.472656 3.296875 30.140625 5.390625 C 28.816406 7.492188 27.019531 9.046875 24.75 10.046875 C 22.476562 11.046875 19.921875 11.546875 17.078125 11.546875 C 15.535156 11.546875 13.734375 11.273438 11.671875 10.734375 C 9.617188 10.191406 8.304688 9.632812 7.734375 9.0625 C 6.535156 8.445312 5.9375 7.675781 5.9375 6.75 C 5.9375 6.519531 6.015625 6.210938 6.171875 5.828125 C 6.597656 4.867188 7.3125 4.390625 8.3125 4.390625 C 8.8125 4.390625 9.347656 4.503906 9.921875 4.734375 C 13.003906 5.921875 15.410156 6.515625 17.140625 6.515625 C 20.210938 6.515625 22.566406 5.773438 24.203125 4.296875 C 25.835938 2.816406 26.65625 0.789062 26.65625 -1.78125 L 26.65625 -4.90625 C 25.851562 -3.40625 24.5 -2.113281 22.59375 -1.03125 C 20.6875 0.0390625 18.675781 0.578125 16.5625 0.578125 C 13.90625 0.578125 11.476562 -0.09375 9.28125 -1.4375 C 7.09375 -2.789062 5.375 -4.664062 4.125 -7.0625 C 2.875 -9.46875 2.25 -12.171875 2.25 -15.171875 C 2.25 -18.171875 2.875 -20.875 4.125 -23.28125 C 5.375 -25.6875 7.082031 -27.5625 9.25 -28.90625 C 11.425781 -30.25 13.828125 -30.921875 16.453125 -30.921875 C 18.566406 -30.921875 20.535156 -30.441406 22.359375 -29.484375 C 24.179688 -28.523438 25.613281 -27.351562 26.65625 -25.96875 L 26.65625 -27.8125 C 26.65625 -28.625 26.90625 -29.296875 27.40625 -29.828125 C 27.90625 -30.367188 28.5625 -30.640625 29.375 -30.640625 Z M 17.203125 -4.5 C 19.078125 -4.5 20.742188 -4.953125 22.203125 -5.859375 C 23.671875 -6.765625 24.816406 -8.035156 25.640625 -9.671875 C 26.472656 -11.304688 26.890625 -13.140625 26.890625 -15.171875 C 26.890625 -17.210938 26.472656 -19.039062 25.640625 -20.65625 C 24.816406 -22.269531 23.671875 -23.535156 22.203125 -24.453125 C 20.742188 -25.378906 19.078125 -25.84375 17.203125 -25.84375 C 15.347656 -25.84375 13.691406 -25.378906 12.234375 -24.453125 C 10.773438 -23.535156 9.628906 -22.257812 8.796875 -20.625 C 7.972656 -18.988281 7.5625 -17.171875 7.5625 -15.171875 C 7.5625 -13.171875 7.972656 -11.351562 8.796875 -9.71875 C 9.628906 -8.082031 10.773438 -6.800781 12.234375 -5.875 C 13.691406 -4.957031 15.347656 -4.5 17.203125 -4.5 Z M 17.203125 -4.5 "/></g></g></g><g fill="#ffffff" fill-opacity="1"><g transform="translate(422.840018, 358.235393)"><g><path d="M 30.640625 -16.265625 C 30.597656 -15.578125 30.304688 -14.992188 29.765625 -14.515625 C 29.234375 -14.035156 28.601562 -13.796875 27.875 -13.796875 L 7.5625 -13.796875 C 7.832031 -10.984375 8.898438 -8.726562 10.765625 -7.03125 C 12.628906 -5.34375 14.90625 -4.5 17.59375 -4.5 C 19.445312 -4.5 20.945312 -4.765625 22.09375 -5.296875 C 23.25 -5.835938 24.269531 -6.535156 25.15625 -7.390625 C 25.738281 -7.734375 26.296875 -7.90625 26.828125 -7.90625 C 27.484375 -7.90625 28.03125 -7.671875 28.46875 -7.203125 C 28.914062 -6.742188 29.140625 -6.207031 29.140625 -5.59375 C 29.140625 -4.789062 28.753906 -4.0625 27.984375 -3.40625 C 26.867188 -2.289062 25.382812 -1.347656 23.53125 -0.578125 C 21.6875 0.191406 19.804688 0.578125 17.890625 0.578125 C 14.773438 0.578125 12.03125 -0.0703125 9.65625 -1.375 C 7.289062 -2.6875 5.460938 -4.515625 4.171875 -6.859375 C 2.890625 -9.210938 2.25 -11.867188 2.25 -14.828125 C 2.25 -18.054688 2.910156 -20.890625 4.234375 -23.328125 C 5.566406 -25.773438 7.316406 -27.648438 9.484375 -28.953125 C 11.660156 -30.265625 14 -30.921875 16.5 -30.921875 C 18.96875 -30.921875 21.273438 -30.285156 23.421875 -29.015625 C 25.578125 -27.753906 27.304688 -26.003906 28.609375 -23.765625 C 29.921875 -21.535156 30.597656 -19.035156 30.640625 -16.265625 Z M 16.5 -25.84375 C 14.34375 -25.84375 12.476562 -25.238281 10.90625 -24.03125 C 9.332031 -22.820312 8.296875 -20.945312 7.796875 -18.40625 L 24.8125 -18.40625 L 24.8125 -18.875 C 24.625 -20.90625 23.710938 -22.570312 22.078125 -23.875 C 20.441406 -25.1875 18.582031 -25.84375 16.5 -25.84375 Z M 16.5 -25.84375 "/></g></g></g><g fill="#ffffff" fill-opacity="1"><g transform="translate(455.727884, 358.235393)"><g><path d="M 19.15625 -30.921875 C 20.15625 -30.921875 21.019531 -30.660156 21.75 -30.140625 C 22.476562 -29.628906 22.84375 -28.988281 22.84375 -28.21875 C 22.84375 -27.289062 22.601562 -26.585938 22.125 -26.109375 C 21.644531 -25.628906 21.0625 -25.390625 20.375 -25.390625 C 20.019531 -25.390625 19.5 -25.503906 18.8125 -25.734375 C 18 -26.003906 17.363281 -26.140625 16.90625 -26.140625 C 15.71875 -26.140625 14.554688 -25.722656 13.421875 -24.890625 C 12.285156 -24.066406 11.359375 -22.929688 10.640625 -21.484375 C 9.929688 -20.046875 9.578125 -18.441406 9.578125 -16.671875 L 9.578125 -2.765625 C 9.578125 -1.992188 9.316406 -1.335938 8.796875 -0.796875 C 8.273438 -0.265625 7.613281 0 6.8125 0 C 6 0 5.34375 -0.257812 4.84375 -0.78125 C 4.34375 -1.300781 4.09375 -1.960938 4.09375 -2.765625 L 4.09375 -27.46875 C 4.09375 -28.238281 4.351562 -28.890625 4.875 -29.421875 C 5.394531 -29.960938 6.039062 -30.234375 6.8125 -30.234375 C 7.613281 -30.234375 8.273438 -29.960938 8.796875 -29.421875 C 9.316406 -28.890625 9.578125 -28.238281 9.578125 -27.46875 L 9.578125 -24.53125 C 10.421875 -26.40625 11.6875 -27.929688 13.375 -29.109375 C 15.070312 -30.285156 17 -30.890625 19.15625 -30.921875 Z M 19.15625 -30.921875 "/></g></g></g><g fill="#ffffff" fill-opacity="1"><g transform="translate(479.557177, 358.235393)"><g><path d="M 9.296875 -2.765625 C 9.296875 -1.992188 9.035156 -1.335938 8.515625 -0.796875 C 7.992188 -0.265625 7.328125 0 6.515625 0 C 5.742188 0 5.097656 -0.265625 4.578125 -0.796875 C 4.066406 -1.335938 3.8125 -1.992188 3.8125 -2.765625 L 3.8125 -27.75 C 3.8125 -28.519531 4.066406 -29.175781 4.578125 -29.71875 C 5.097656 -30.257812 5.742188 -30.53125 6.515625 -30.53125 C 7.328125 -30.53125 7.992188 -30.257812 8.515625 -29.71875 C 9.035156 -29.175781 9.296875 -28.519531 9.296875 -27.75 Z M 6.515625 -34.328125 C 5.398438 -34.328125 4.601562 -34.53125 4.125 -34.9375 C 3.644531 -35.34375 3.40625 -35.988281 3.40625 -36.875 L 3.40625 -37.796875 C 3.40625 -38.722656 3.660156 -39.375 4.171875 -39.75 C 4.691406 -40.132812 5.492188 -40.328125 6.578125 -40.328125 C 7.648438 -40.328125 8.425781 -40.125 8.90625 -39.71875 C 9.382812 -39.320312 9.625 -38.679688 9.625 -37.796875 L 9.625 -36.875 C 9.625 -35.945312 9.375 -35.289062 8.875 -34.90625 C 8.375 -34.519531 7.585938 -34.328125 6.515625 -34.328125 Z M 6.515625 -34.328125 "/></g></g></g></svg>