<svg xmlns="http://www.w3.org/2000/svg" xmlns:xlink="http://www.w3.org/1999/xlink" width="500" zoomAndPan="magnify" viewBox="0 0 375 374.999991" height="500" preserveAspectRatio="xMidYMid meet" version="1.0"><defs><g/><clipPath id="2622ea5e98"><path d="M 112.5 122 L 138 122 L 138 199.914062 L 112.5 199.914062 Z M 112.5 122 " clip-rule="nonzero"/></clipPath><clipPath id="f2bf522880"><path d="M 237.703125 122.40625 L 262.496094 122.40625 L 262.496094 199.910156 L 237.703125 199.910156 Z M 237.703125 122.40625 " clip-rule="nonzero"/></clipPath><clipPath id="60b5bad259"><path d="M 175 104.664062 L 200 104.664062 L 200 131 L 175 131 Z M 175 104.664062 " clip-rule="nonzero"/></clipPath></defs><rect x="-37.5" width="450" fill="#ffffff" y="-37.499999" height="449.999989" fill-opacity="1"/><rect x="-37.5" width="450" fill="#ffffff" y="-37.499999" height="449.999989" fill-opacity="1"/><rect x="-37.5" width="450" fill="#ffffff" y="-37.499999" height="449.999989" fill-opacity="1"/><path fill="#4a87ce" d="M 163.644531 148.097656 C 161.804688 148.097656 160.089844 148.445312 158.5 149.140625 C 156.90625 149.835938 155.527344 150.773438 154.359375 151.953125 C 153.191406 153.132812 152.265625 154.519531 151.582031 156.109375 C 150.898438 157.699219 150.558594 159.390625 150.558594 161.179688 C 150.558594 162.96875 150.898438 164.660156 151.582031 166.25 C 152.265625 167.839844 153.191406 169.226562 154.359375 170.40625 C 155.527344 171.585938 156.90625 172.523438 158.5 173.21875 C 160.089844 173.914062 161.804688 174.261719 163.644531 174.261719 C 165.457031 174.261719 167.160156 173.914062 168.75 173.21875 C 170.339844 172.523438 171.726562 171.578125 172.90625 170.386719 C 174.085938 169.195312 175.015625 167.808594 175.699219 166.230469 C 176.382812 164.652344 176.726562 162.96875 176.726562 161.179688 C 176.726562 159.390625 176.382812 157.707031 175.699219 156.128906 C 175.015625 154.550781 174.085938 153.164062 172.90625 151.972656 C 171.726562 150.78125 170.339844 149.835938 168.75 149.140625 C 167.160156 148.445312 165.457031 148.097656 163.644531 148.097656 Z M 184.515625 161.179688 C 184.515625 166.996094 182.476562 171.914062 178.402344 175.941406 C 174.277344 180.015625 169.359375 182.054688 163.644531 182.054688 C 157.875 182.054688 152.957031 180.015625 148.882812 175.941406 C 144.804688 171.867188 142.769531 166.945312 142.769531 161.179688 C 142.769531 155.414062 144.804688 150.496094 148.882812 146.417969 C 152.957031 142.34375 157.875 140.304688 163.644531 140.304688 C 169.359375 140.304688 174.277344 142.34375 178.402344 146.417969 C 180.441406 148.457031 181.964844 150.707031 182.96875 153.164062 C 183.976562 155.625 184.492188 158.296875 184.515625 161.179688 " fill-opacity="1" fill-rule="nonzero"/><path fill="#4a87ce" d="M 211.355469 148.097656 C 209.515625 148.097656 207.800781 148.445312 206.210938 149.140625 C 204.621094 149.835938 203.242188 150.773438 202.074219 151.953125 C 200.90625 153.132812 199.980469 154.519531 199.296875 156.109375 C 198.613281 157.699219 198.273438 159.390625 198.273438 161.179688 C 198.273438 162.96875 198.613281 164.660156 199.296875 166.25 C 199.980469 167.839844 200.90625 169.226562 202.074219 170.40625 C 203.242188 171.585938 204.621094 172.523438 206.210938 173.21875 C 207.800781 173.914062 209.515625 174.261719 211.355469 174.261719 C 213.167969 174.261719 214.871094 173.914062 216.460938 173.21875 C 218.050781 172.523438 219.4375 171.578125 220.617188 170.386719 C 221.796875 169.195312 222.730469 167.808594 223.414062 166.230469 C 224.097656 164.652344 224.4375 162.96875 224.4375 161.179688 C 224.4375 159.390625 224.097656 157.707031 223.414062 156.128906 C 222.730469 154.550781 221.796875 153.164062 220.617188 151.972656 C 219.4375 150.78125 218.050781 149.835938 216.460938 149.140625 C 214.871094 148.445312 213.167969 148.097656 211.355469 148.097656 Z M 232.230469 161.179688 C 232.230469 166.996094 230.191406 171.914062 226.117188 175.941406 C 221.992188 180.015625 217.070312 182.054688 211.355469 182.054688 C 205.589844 182.054688 200.667969 180.015625 196.59375 175.941406 C 192.519531 171.867188 190.480469 166.945312 190.480469 161.179688 C 190.480469 155.414062 192.519531 150.496094 196.59375 146.417969 C 200.667969 142.34375 205.589844 140.304688 211.355469 140.304688 C 217.070312 140.304688 221.992188 142.34375 226.117188 146.417969 C 228.152344 148.457031 229.675781 150.707031 230.683594 153.164062 C 231.6875 155.625 232.203125 158.296875 232.230469 161.179688 " fill-opacity="1" fill-rule="nonzero"/><g clip-path="url(#2622ea5e98)"><path fill="#211d1d" d="M 133.375 122.449219 C 134.492188 122.449219 135.417969 122.828125 136.152344 123.585938 C 136.882812 124.34375 137.25 125.269531 137.25 126.363281 C 137.25 127.484375 136.882812 128.410156 136.152344 129.140625 C 135.417969 129.875 134.492188 130.242188 133.375 130.242188 C 130.292969 130.242188 128.753906 131.78125 128.753906 134.863281 L 128.753906 152.679688 C 128.753906 156.257812 127.933594 159.09375 126.292969 161.179688 C 127.933594 163.265625 128.753906 166.101562 128.753906 169.679688 L 128.753906 187.496094 C 128.753906 190.578125 130.292969 192.121094 133.375 192.121094 C 134.492188 192.121094 135.417969 192.484375 136.152344 193.21875 C 136.882812 193.953125 137.25 194.875 137.25 195.996094 C 137.25 197.113281 136.882812 198.046875 136.152344 198.792969 C 135.417969 199.535156 134.492188 199.910156 133.375 199.910156 C 125.097656 199.910156 120.960938 195.773438 120.960938 187.496094 L 120.960938 169.679688 C 120.960938 166.597656 119.433594 165.054688 116.375 165.054688 C 115.257812 165.054688 114.332031 164.691406 113.597656 163.957031 C 112.867188 163.222656 112.5 162.296875 112.5 161.179688 C 112.5 160.0625 112.867188 159.136719 113.597656 158.402344 C 114.332031 157.671875 115.257812 157.304688 116.375 157.304688 C 119.433594 157.304688 120.960938 155.761719 120.960938 152.679688 L 120.960938 134.863281 C 120.960938 126.585938 125.097656 122.449219 133.375 122.449219 " fill-opacity="1" fill-rule="nonzero"/></g><g clip-path="url(#f2bf522880)"><path fill="#211d1d" d="M 254.035156 134.863281 L 254.035156 152.679688 C 254.035156 155.761719 255.5625 157.304688 258.621094 157.304688 C 259.738281 157.304688 260.664062 157.671875 261.398438 158.402344 C 262.132812 159.136719 262.496094 160.0625 262.496094 161.179688 C 262.496094 162.296875 262.132812 163.222656 261.398438 163.957031 C 260.664062 164.691406 259.738281 165.054688 258.621094 165.054688 C 255.5625 165.054688 254.035156 166.597656 254.035156 169.679688 L 254.035156 187.496094 C 254.035156 195.773438 249.898438 199.910156 241.621094 199.910156 C 240.503906 199.910156 239.578125 199.535156 238.84375 198.792969 C 238.113281 198.046875 237.746094 197.113281 237.746094 195.996094 C 237.746094 194.875 238.113281 193.953125 238.84375 193.21875 C 239.578125 192.484375 240.503906 192.121094 241.621094 192.121094 C 244.703125 192.121094 246.246094 190.578125 246.246094 187.496094 L 246.246094 169.679688 C 246.246094 166.101562 247.066406 163.265625 248.707031 161.179688 C 247.066406 159.09375 246.246094 156.257812 246.246094 152.679688 L 246.246094 134.863281 C 246.246094 131.78125 244.703125 130.242188 241.621094 130.242188 C 240.503906 130.242188 239.578125 129.875 238.84375 129.140625 C 238.113281 128.410156 237.746094 127.484375 237.746094 126.363281 C 237.746094 125.269531 238.113281 124.34375 238.84375 123.585938 C 239.578125 122.828125 240.503906 122.449219 241.621094 122.449219 C 249.898438 122.449219 254.035156 126.585938 254.035156 134.863281 " fill-opacity="1" fill-rule="nonzero"/></g><g clip-path="url(#60b5bad259)"><path fill="#211d1d" d="M 199.167969 125.539062 C 199.167969 126.1875 199.042969 126.789062 198.792969 127.347656 C 198.542969 127.90625 198.214844 128.398438 197.804688 128.820312 C 197.394531 129.242188 196.902344 129.574219 196.332031 129.808594 C 195.761719 130.046875 195.164062 130.164062 194.542969 130.164062 C 193.398438 130.164062 192.417969 129.765625 191.597656 128.96875 C 190.777344 128.175781 190.109375 127.199219 189.585938 126.042969 C 189.0625 124.886719 188.683594 123.695312 188.449219 122.464844 C 188.214844 121.234375 188.09375 120.085938 188.09375 119.019531 C 188.09375 114.617188 189.972656 110.171875 193.722656 105.671875 C 194.394531 105 195.152344 104.667969 195.996094 104.667969 C 196.867188 104.667969 197.613281 104.976562 198.234375 105.597656 C 198.855469 106.21875 199.167969 106.964844 199.167969 107.835938 C 199.167969 108.257812 199.078125 108.691406 198.90625 109.140625 C 197.785156 111.875 197.226562 114.46875 197.226562 116.929688 C 197.226562 119.265625 197.734375 121.527344 198.753906 123.714844 C 199.03125 124.335938 199.167969 124.945312 199.167969 125.539062 Z M 186.902344 125.539062 C 186.902344 126.1875 186.777344 126.789062 186.53125 127.347656 C 186.28125 127.90625 185.953125 128.398438 185.542969 128.820312 C 185.132812 129.242188 184.640625 129.574219 184.070312 129.808594 C 183.496094 130.046875 182.902344 130.164062 182.28125 130.164062 C 181.136719 130.164062 180.15625 129.765625 179.335938 128.96875 C 178.515625 128.175781 177.84375 127.199219 177.324219 126.042969 C 176.800781 124.886719 176.421875 123.695312 176.183594 122.464844 C 175.949219 121.234375 175.832031 120.085938 175.832031 119.019531 C 175.832031 114.617188 177.707031 110.171875 181.460938 105.671875 C 182.128906 105 182.886719 104.667969 183.734375 104.667969 C 184.601562 104.667969 185.347656 104.976562 185.96875 105.597656 C 186.589844 106.21875 186.902344 106.964844 186.902344 107.835938 C 186.902344 108.257812 186.816406 108.691406 186.640625 109.140625 C 185.523438 111.875 184.964844 114.46875 184.964844 116.929688 C 184.964844 119.265625 185.472656 121.527344 186.492188 123.714844 C 186.765625 124.335938 186.902344 124.945312 186.902344 125.539062 " fill-opacity="1" fill-rule="nonzero"/></g><g fill="#4a87ce" fill-opacity="1"><g transform="translate(91.751938, 226.616073)"><g><path d="M 11.953125 -1.140625 C 11.378906 -0.679688 10.628906 -0.328125 9.703125 -0.078125 C 8.785156 0.171875 7.65625 0.296875 6.3125 0.296875 C 4.96875 0.296875 3.539062 0.171875 2.03125 -0.078125 L 2.03125 -15.640625 C 3.5625 -15.878906 4.882812 -16 6 -16 C 7.125 -16 8.046875 -15.890625 8.765625 -15.671875 C 9.484375 -15.460938 10.070312 -15.179688 10.53125 -14.828125 C 11.425781 -14.117188 11.875 -13.207031 11.875 -12.09375 C 11.875 -10.976562 11.472656 -10.054688 10.671875 -9.328125 C 11.628906 -9.023438 12.367188 -8.457031 12.890625 -7.625 C 13.378906 -6.875 13.625 -6.046875 13.625 -5.140625 C 13.625 -4.234375 13.488281 -3.457031 13.21875 -2.8125 C 12.957031 -2.164062 12.535156 -1.609375 11.953125 -1.140625 Z M 5.15625 -9.765625 C 5.488281 -9.710938 5.898438 -9.6875 6.390625 -9.6875 C 6.890625 -9.6875 7.300781 -9.75 7.625 -9.875 C 7.945312 -10.007812 8.191406 -10.175781 8.359375 -10.375 C 8.640625 -10.695312 8.78125 -11.144531 8.78125 -11.71875 C 8.78125 -12.914062 8.070312 -13.515625 6.65625 -13.515625 C 6.0625 -13.515625 5.5625 -13.492188 5.15625 -13.453125 Z M 6.90625 -7.234375 C 6.25 -7.234375 5.664062 -7.191406 5.15625 -7.109375 L 5.15625 -2.46875 C 5.707031 -2.320312 6.285156 -2.25 6.890625 -2.25 C 7.503906 -2.25 8.039062 -2.320312 8.5 -2.46875 C 8.957031 -2.613281 9.34375 -2.816406 9.65625 -3.078125 C 10.300781 -3.585938 10.625 -4.25 10.625 -5.0625 C 10.625 -6.507812 9.382812 -7.234375 6.90625 -7.234375 Z M 6.90625 -7.234375 "/></g></g></g><g fill="#4a87ce" fill-opacity="1"><g transform="translate(105.882026, 226.616073)"><g><path d="M 3.171875 0.09375 C 2.492188 0.03125 1.703125 0 0.796875 0 L -0.125 0 L 5 -14.390625 C 5.226562 -15.035156 5.34375 -15.410156 5.34375 -15.515625 C 5.34375 -15.628906 5.34375 -15.695312 5.34375 -15.71875 L 5.34375 -15.75 C 5.863281 -15.71875 6.410156 -15.703125 6.984375 -15.703125 C 7.453125 -15.703125 8.019531 -15.710938 8.6875 -15.734375 L 8.6875 -15.703125 C 8.675781 -15.671875 8.671875 -15.628906 8.671875 -15.578125 C 8.671875 -15.429688 8.785156 -15.035156 9.015625 -14.390625 L 14.265625 0.03125 C 14.109375 0.03125 13.925781 0.03125 13.71875 0.03125 C 13.71875 0.03125 13.507812 0.0195312 13.09375 0 C 12.894531 0 12.71875 0 12.5625 0 L 10.734375 0 L 9.625 -3.40625 L 4.28125 -3.40625 Z M 8.703125 -6.234375 L 6.921875 -11.734375 L 5.1875 -6.234375 Z M 8.703125 -6.234375 "/></g></g></g><g fill="#4a87ce" fill-opacity="1"><g transform="translate(120.012113, 226.616073)"><g><path d="M 4.328125 0 C 3.171875 0 2.40625 0.0234375 2.03125 0.078125 L 2.03125 -15.78125 C 2.21875 -15.726562 2.609375 -15.703125 3.203125 -15.703125 C 3.796875 -15.703125 4.488281 -15.71875 5.28125 -15.75 L 5.28125 -2.828125 L 7.71875 -2.828125 C 8.425781 -2.828125 8.992188 -2.851562 9.421875 -2.90625 C 9.367188 -1.0625 9.34375 -0.101562 9.34375 -0.03125 L 9.34375 0.078125 C 8.570312 0.0234375 7.273438 0 5.453125 0 Z M 4.328125 0 "/></g></g></g><g fill="#4a87ce" fill-opacity="1"><g transform="translate(130.105035, 226.616073)"><g><path d="M 3.171875 0.09375 C 2.492188 0.03125 1.703125 0 0.796875 0 L -0.125 0 L 5 -14.390625 C 5.226562 -15.035156 5.34375 -15.410156 5.34375 -15.515625 C 5.34375 -15.628906 5.34375 -15.695312 5.34375 -15.71875 L 5.34375 -15.75 C 5.863281 -15.71875 6.410156 -15.703125 6.984375 -15.703125 C 7.453125 -15.703125 8.019531 -15.710938 8.6875 -15.734375 L 8.6875 -15.703125 C 8.675781 -15.671875 8.671875 -15.628906 8.671875 -15.578125 C 8.671875 -15.429688 8.785156 -15.035156 9.015625 -14.390625 L 14.265625 0.03125 C 14.109375 0.03125 13.925781 0.03125 13.71875 0.03125 C 13.71875 0.03125 13.507812 0.0195312 13.09375 0 C 12.894531 0 12.71875 0 12.5625 0 L 10.734375 0 L 9.625 -3.40625 L 4.28125 -3.40625 Z M 8.703125 -6.234375 L 6.921875 -11.734375 L 5.1875 -6.234375 Z M 8.703125 -6.234375 "/></g></g></g><g fill="#4a87ce" fill-opacity="1"><g transform="translate(144.235122, 226.616073)"><g><path d="M 5.296875 -15.765625 C 5.773438 -15.722656 6.128906 -15.703125 6.359375 -15.703125 L 7.28125 -15.703125 C 7.664062 -15.703125 8.046875 -15.734375 8.421875 -15.796875 L 8.421875 -5.21875 C 8.421875 -3.488281 7.957031 -2.128906 7.03125 -1.140625 C 6.164062 -0.179688 4.988281 0.296875 3.5 0.296875 C 2.46875 0.296875 1.609375 0.09375 0.921875 -0.3125 C 0.660156 -0.46875 0.398438 -0.648438 0.140625 -0.859375 L 0.140625 -4.28125 L 0.21875 -4.296875 C 0.550781 -3.773438 0.941406 -3.347656 1.390625 -3.015625 C 1.835938 -2.691406 2.390625 -2.53125 3.046875 -2.53125 C 4.546875 -2.53125 5.296875 -3.394531 5.296875 -5.125 Z M 5.296875 -15.765625 "/></g></g></g><g fill="#4a87ce" fill-opacity="1"><g transform="translate(154.387061, 226.616073)"><g><path d="M 2.390625 -15.75 C 3.179688 -15.71875 3.660156 -15.703125 3.828125 -15.703125 L 4.671875 -15.703125 C 5.085938 -15.703125 5.425781 -15.734375 5.6875 -15.796875 L 5.671875 0 L 2.390625 0 Z M 2.390625 -15.75 "/></g></g></g><g fill="#4a87ce" fill-opacity="1"><g transform="translate(162.461394, 226.616073)"><g/></g></g><g fill="#211d1d" fill-opacity="1"><g transform="translate(170.466777, 226.616073)"><g><path d="M 11.953125 -1.140625 C 11.378906 -0.679688 10.628906 -0.328125 9.703125 -0.078125 C 8.785156 0.171875 7.65625 0.296875 6.3125 0.296875 C 4.96875 0.296875 3.539062 0.171875 2.03125 -0.078125 L 2.03125 -15.640625 C 3.5625 -15.878906 4.882812 -16 6 -16 C 7.125 -16 8.046875 -15.890625 8.765625 -15.671875 C 9.484375 -15.460938 10.070312 -15.179688 10.53125 -14.828125 C 11.425781 -14.117188 11.875 -13.207031 11.875 -12.09375 C 11.875 -10.976562 11.472656 -10.054688 10.671875 -9.328125 C 11.628906 -9.023438 12.367188 -8.457031 12.890625 -7.625 C 13.378906 -6.875 13.625 -6.046875 13.625 -5.140625 C 13.625 -4.234375 13.488281 -3.457031 13.21875 -2.8125 C 12.957031 -2.164062 12.535156 -1.609375 11.953125 -1.140625 Z M 5.15625 -9.765625 C 5.488281 -9.710938 5.898438 -9.6875 6.390625 -9.6875 C 6.890625 -9.6875 7.300781 -9.75 7.625 -9.875 C 7.945312 -10.007812 8.191406 -10.175781 8.359375 -10.375 C 8.640625 -10.695312 8.78125 -11.144531 8.78125 -11.71875 C 8.78125 -12.914062 8.070312 -13.515625 6.65625 -13.515625 C 6.0625 -13.515625 5.5625 -13.492188 5.15625 -13.453125 Z M 6.90625 -7.234375 C 6.25 -7.234375 5.664062 -7.191406 5.15625 -7.109375 L 5.15625 -2.46875 C 5.707031 -2.320312 6.285156 -2.25 6.890625 -2.25 C 7.503906 -2.25 8.039062 -2.320312 8.5 -2.46875 C 8.957031 -2.613281 9.34375 -2.816406 9.65625 -3.078125 C 10.300781 -3.585938 10.625 -4.25 10.625 -5.0625 C 10.625 -6.507812 9.382812 -7.234375 6.90625 -7.234375 Z M 6.90625 -7.234375 "/></g></g></g><g fill="#211d1d" fill-opacity="1"><g transform="translate(184.596864, 226.616073)"><g><path d="M 3.3125 -1.859375 C 2.601562 -2.546875 2.039062 -3.367188 1.625 -4.328125 C 1.207031 -5.296875 1 -6.351562 1 -7.5 C 1 -8.644531 1.191406 -9.726562 1.578125 -10.75 C 1.960938 -11.769531 2.515625 -12.671875 3.234375 -13.453125 C 3.953125 -14.234375 4.816406 -14.851562 5.828125 -15.3125 C 6.847656 -15.769531 7.988281 -16 9.25 -16 C 11.414062 -16 13.242188 -15.316406 14.734375 -13.953125 C 16.328125 -12.484375 17.125 -10.503906 17.125 -8.015625 C 17.125 -5.609375 16.304688 -3.601562 14.671875 -2 C 13.660156 -1.019531 12.457031 -0.34375 11.0625 0.03125 C 10.375 0.207031 9.570312 0.296875 8.65625 0.296875 C 7.738281 0.296875 6.796875 0.109375 5.828125 -0.265625 C 4.867188 -0.648438 4.03125 -1.179688 3.3125 -1.859375 Z M 4.28125 -7.65625 C 4.28125 -6.925781 4.398438 -6.253906 4.640625 -5.640625 C 4.890625 -5.023438 5.234375 -4.492188 5.671875 -4.046875 C 6.585938 -3.117188 7.769531 -2.65625 9.21875 -2.65625 C 10.601562 -2.65625 11.710938 -3.097656 12.546875 -3.984375 C 13.390625 -4.910156 13.8125 -6.171875 13.8125 -7.765625 C 13.8125 -9.253906 13.410156 -10.5 12.609375 -11.5 C 11.734375 -12.570312 10.535156 -13.109375 9.015625 -13.109375 C 7.535156 -13.109375 6.363281 -12.566406 5.5 -11.484375 C 4.6875 -10.460938 4.28125 -9.1875 4.28125 -7.65625 Z M 4.28125 -7.65625 "/></g></g></g><g fill="#211d1d" fill-opacity="1"><g transform="translate(202.7169, 226.616073)"><g><path d="M 2.140625 0 C 2.179688 -0.269531 2.203125 -0.5625 2.203125 -0.875 L 2.203125 -15.703125 L 4.578125 -15.703125 L 10.828125 -5.859375 L 10.828125 -14.90625 C 10.828125 -15.332031 10.789062 -15.597656 10.71875 -15.703125 L 13.90625 -15.703125 C 13.863281 -15.390625 13.84375 -15.046875 13.84375 -14.671875 L 13.84375 0 L 11.390625 0 L 5.21875 -9.453125 L 5.21875 0 Z M 2.140625 0 "/></g></g></g><g fill="#211d1d" fill-opacity="1"><g transform="translate(218.75933, 226.616073)"><g><path d="M 3.171875 0.09375 C 2.492188 0.03125 1.703125 0 0.796875 0 L -0.125 0 L 5 -14.390625 C 5.226562 -15.035156 5.34375 -15.410156 5.34375 -15.515625 C 5.34375 -15.628906 5.34375 -15.695312 5.34375 -15.71875 L 5.34375 -15.75 C 5.863281 -15.71875 6.410156 -15.703125 6.984375 -15.703125 C 7.453125 -15.703125 8.019531 -15.710938 8.6875 -15.734375 L 8.6875 -15.703125 C 8.675781 -15.671875 8.671875 -15.628906 8.671875 -15.578125 C 8.671875 -15.429688 8.785156 -15.035156 9.015625 -14.390625 L 14.265625 0.03125 C 14.109375 0.03125 13.925781 0.03125 13.71875 0.03125 C 13.71875 0.03125 13.507812 0.0195312 13.09375 0 C 12.894531 0 12.71875 0 12.5625 0 L 10.734375 0 L 9.625 -3.40625 L 4.28125 -3.40625 Z M 8.703125 -6.234375 L 6.921875 -11.734375 L 5.1875 -6.234375 Z M 8.703125 -6.234375 "/></g></g></g><g fill="#211d1d" fill-opacity="1"><g transform="translate(232.889417, 226.616073)"><g><path d="M 14.96875 -9.46875 C 14.820312 -9.207031 14.75 -8.566406 14.75 -7.546875 L 14.75 -3.890625 C 14.75 -2.773438 14.175781 -1.804688 13.03125 -0.984375 C 11.84375 -0.128906 10.382812 0.296875 8.65625 0.296875 C 6.257812 0.296875 4.347656 -0.453125 2.921875 -1.953125 C 1.546875 -3.390625 0.859375 -5.21875 0.859375 -7.4375 C 0.859375 -9.800781 1.5625 -11.769531 2.96875 -13.34375 C 4.53125 -15.113281 6.6875 -16 9.4375 -16 C 11.269531 -16 12.722656 -15.644531 13.796875 -14.9375 L 13.609375 -11.453125 L 13.515625 -11.4375 C 13.234375 -11.914062 12.6875 -12.304688 11.875 -12.609375 C 11.101562 -12.898438 10.296875 -13.046875 9.453125 -13.046875 C 8.609375 -13.046875 7.867188 -12.910156 7.234375 -12.640625 C 6.597656 -12.378906 6.0625 -12 5.625 -11.5 C 4.695312 -10.488281 4.234375 -9.144531 4.234375 -7.46875 C 4.234375 -6.019531 4.640625 -4.851562 5.453125 -3.96875 C 6.273438 -3.09375 7.332031 -2.65625 8.625 -2.65625 C 10.050781 -2.65625 11.007812 -3.023438 11.5 -3.765625 C 11.65625 -4.003906 11.734375 -4.273438 11.734375 -4.578125 L 11.734375 -6.53125 L 10.21875 -6.53125 C 9.394531 -6.53125 8.945312 -6.457031 8.875 -6.3125 L 8.84375 -6.328125 L 8.734375 -9.40625 C 8.960938 -9.34375 9.859375 -9.3125 11.421875 -9.3125 L 12.8125 -9.3125 C 13.675781 -9.3125 14.382812 -9.375 14.9375 -9.5 Z M 14.96875 -9.46875 "/></g></g></g><g fill="#211d1d" fill-opacity="1"><g transform="translate(248.990864, 226.616073)"><g><path d="M 9.9375 -2.828125 C 10.425781 -2.828125 10.765625 -2.875 10.953125 -2.96875 L 11 -2.96875 L 10.875 0 L 2.03125 0 L 2.03125 -15.796875 C 2.238281 -15.773438 2.472656 -15.757812 2.734375 -15.75 L 3.5625 -15.734375 C 4.113281 -15.710938 4.710938 -15.703125 5.359375 -15.703125 C 7.160156 -15.703125 8.945312 -15.734375 10.71875 -15.796875 C 10.625 -15.109375 10.578125 -14.1875 10.578125 -13.03125 C 10.578125 -12.90625 10.585938 -12.8125 10.609375 -12.75 L 10.578125 -12.703125 C 10.171875 -12.828125 9.585938 -12.890625 8.828125 -12.890625 L 5.109375 -12.890625 L 5.109375 -9.875 L 7.90625 -9.875 C 8.78125 -9.875 9.300781 -9.894531 9.46875 -9.9375 L 9.5 -7.03125 C 9.125 -7.070312 8.640625 -7.09375 8.046875 -7.09375 L 5.109375 -7.09375 L 5.109375 -2.828125 Z M 9.9375 -2.828125 "/></g></g></g><g fill="#211d1d" fill-opacity="1"><g transform="translate(261.102363, 226.616073)"><g><path d="M 7.109375 -6.109375 C 6.867188 -6.085938 6.613281 -6.078125 6.34375 -6.078125 C 6.082031 -6.078125 5.6875 -6.097656 5.15625 -6.140625 L 5.15625 0 L 2.03125 0 L 2.03125 -15.796875 C 3.132812 -15.929688 4.488281 -16 6.09375 -16 C 8.28125 -16 9.910156 -15.59375 10.984375 -14.78125 C 12.066406 -13.976562 12.609375 -12.734375 12.609375 -11.046875 C 12.609375 -9.742188 12.113281 -8.628906 11.125 -7.703125 C 10.800781 -7.398438 10.429688 -7.140625 10.015625 -6.921875 L 12.421875 -1.84375 C 12.898438 -0.789062 13.265625 -0.164062 13.515625 0.03125 L 13.453125 0.078125 C 12.691406 -0.046875 11.488281 -0.0390625 9.84375 0.09375 Z M 6.3125 -13.21875 C 5.914062 -13.21875 5.53125 -13.195312 5.15625 -13.15625 L 5.15625 -8.640625 C 5.539062 -8.585938 5.992188 -8.5625 6.515625 -8.5625 C 7.035156 -8.5625 7.472656 -8.601562 7.828125 -8.6875 C 8.179688 -8.78125 8.488281 -8.925781 8.75 -9.125 C 9.3125 -9.539062 9.59375 -10.164062 9.59375 -11 C 9.59375 -11.832031 9.300781 -12.414062 8.71875 -12.75 C 8.175781 -13.0625 7.375 -13.21875 6.3125 -13.21875 Z M 6.3125 -13.21875 "/></g></g></g><g fill="#211d1d" fill-opacity="1"><g transform="translate(275.185233, 226.616073)"><g><path d="M 2.390625 -15.75 C 3.179688 -15.71875 3.660156 -15.703125 3.828125 -15.703125 L 4.671875 -15.703125 C 5.085938 -15.703125 5.425781 -15.734375 5.6875 -15.796875 L 5.671875 0 L 2.390625 0 Z M 2.390625 -15.75 "/></g></g></g><g fill="#737373" fill-opacity="1"><g transform="translate(133.697999, 244.09765)"><g><path d="M 2.484375 0 L 1.3125 0 L 0.25 -7.703125 L 1.09375 -7.703125 L 1.984375 -1.140625 L 2.84375 -7.6875 L 3.703125 -7.6875 L 4.546875 -1.140625 L 5.40625 -7.703125 L 6.15625 -7.703125 L 5.109375 0 L 3.984375 0 L 3.25 -5.21875 Z M 2.484375 0 "/></g></g></g><g fill="#737373" fill-opacity="1"><g transform="translate(144.506512, 244.09765)"><g><path d="M 3.171875 -4.296875 L 3.171875 -3.515625 L 1.296875 -3.515625 L 1.296875 -0.78125 L 3.609375 -0.78125 L 3.609375 0 L 0.4375 0 L 0.4375 -7.703125 L 3.609375 -7.703125 L 3.609375 -6.921875 L 1.296875 -6.921875 L 1.296875 -4.296875 Z M 3.171875 -4.296875 "/></g></g></g><g fill="#737373" fill-opacity="1"><g transform="translate(152.863758, 244.09765)"><g><path d="M 2.171875 -7.703125 C 2.765625 -7.703125 3.191406 -7.5625 3.453125 -7.28125 C 3.710938 -7 3.84375 -6.570312 3.84375 -6 L 3.84375 -5.625 C 3.84375 -5.21875 3.773438 -4.882812 3.640625 -4.625 C 3.503906 -4.375 3.269531 -4.203125 2.9375 -4.109375 C 3.3125 -4.003906 3.578125 -3.804688 3.734375 -3.515625 C 3.890625 -3.234375 3.96875 -2.878906 3.96875 -2.453125 L 3.96875 -1.796875 C 3.96875 -1.222656 3.820312 -0.78125 3.53125 -0.46875 C 3.25 -0.15625 2.8125 0 2.21875 0 L 0.4375 0 L 0.4375 -7.703125 Z M 1.953125 -4.4375 C 2.296875 -4.4375 2.550781 -4.503906 2.71875 -4.640625 C 2.894531 -4.773438 2.984375 -5.046875 2.984375 -5.453125 L 2.984375 -5.90625 C 2.984375 -6.25 2.921875 -6.503906 2.796875 -6.671875 C 2.671875 -6.835938 2.453125 -6.921875 2.140625 -6.921875 L 1.296875 -6.921875 L 1.296875 -4.4375 Z M 2.21875 -0.78125 C 2.820312 -0.78125 3.125 -1.128906 3.125 -1.828125 L 3.125 -2.515625 C 3.125 -2.941406 3.035156 -3.238281 2.859375 -3.40625 C 2.691406 -3.570312 2.421875 -3.65625 2.046875 -3.65625 L 1.296875 -3.65625 L 1.296875 -0.78125 Z M 2.21875 -0.78125 "/></g></g></g><g fill="#737373" fill-opacity="1"><g transform="translate(161.572749, 244.09765)"><g><path d="M 0.40625 -4.234375 L 2.515625 -4.234375 L 2.515625 -3.46875 L 0.40625 -3.46875 Z M 0.40625 -4.234375 "/></g></g></g><g fill="#737373" fill-opacity="1"><g transform="translate(168.885735, 244.09765)"><g><path d="M 2.25 -7.703125 C 2.84375 -7.703125 3.28125 -7.53125 3.5625 -7.1875 C 3.851562 -6.84375 4 -6.375 4 -5.78125 L 4 -1.90625 C 4 -1.3125 3.851562 -0.84375 3.5625 -0.5 C 3.28125 -0.164062 2.84375 0 2.25 0 L 0.4375 0 L 0.4375 -7.703125 Z M 2.234375 -0.78125 C 2.535156 -0.78125 2.757812 -0.875 2.90625 -1.0625 C 3.0625 -1.25 3.140625 -1.519531 3.140625 -1.875 L 3.140625 -5.828125 C 3.140625 -6.179688 3.0625 -6.453125 2.90625 -6.640625 C 2.757812 -6.828125 2.53125 -6.921875 2.21875 -6.921875 L 1.296875 -6.921875 L 1.296875 -0.78125 Z M 2.234375 -0.78125 "/></g></g></g><g fill="#737373" fill-opacity="1"><g transform="translate(177.638696, 244.09765)"><g><path d="M 3.171875 -4.296875 L 3.171875 -3.515625 L 1.296875 -3.515625 L 1.296875 -0.78125 L 3.609375 -0.78125 L 3.609375 0 L 0.4375 0 L 0.4375 -7.703125 L 3.609375 -7.703125 L 3.609375 -6.921875 L 1.296875 -6.921875 L 1.296875 -4.296875 Z M 3.171875 -4.296875 "/></g></g></g><g fill="#737373" fill-opacity="1"><g transform="translate(185.995944, 244.09765)"><g><path d="M 1.09375 -7.703125 L 2.34375 -1 L 3.59375 -7.703125 L 4.375 -7.703125 L 2.9375 0 L 1.671875 0 L 0.21875 -7.703125 Z M 1.09375 -7.703125 "/></g></g></g><g fill="#737373" fill-opacity="1"><g transform="translate(194.990742, 244.09765)"><g><path d="M 3.171875 -4.296875 L 3.171875 -3.515625 L 1.296875 -3.515625 L 1.296875 -0.78125 L 3.609375 -0.78125 L 3.609375 0 L 0.4375 0 L 0.4375 -7.703125 L 3.609375 -7.703125 L 3.609375 -6.921875 L 1.296875 -6.921875 L 1.296875 -4.296875 Z M 3.171875 -4.296875 "/></g></g></g><g fill="#737373" fill-opacity="1"><g transform="translate(203.34799, 244.09765)"><g><path d="M 0.4375 0 L 0.4375 -7.703125 L 1.296875 -7.703125 L 1.296875 -0.78125 L 3.5 -0.78125 L 3.5 0 Z M 0.4375 0 "/></g></g></g><g fill="#737373" fill-opacity="1"><g transform="translate(211.452415, 244.09765)"><g><path d="M 0.375 -5.84375 C 0.375 -6.4375 0.519531 -6.90625 0.8125 -7.25 C 1.101562 -7.601562 1.546875 -7.78125 2.140625 -7.78125 C 2.734375 -7.78125 3.175781 -7.601562 3.46875 -7.25 C 3.757812 -6.90625 3.90625 -6.4375 3.90625 -5.84375 L 3.90625 -1.859375 C 3.90625 -1.273438 3.757812 -0.804688 3.46875 -0.453125 C 3.175781 -0.0976562 2.734375 0.078125 2.140625 0.078125 C 1.546875 0.078125 1.101562 -0.0976562 0.8125 -0.453125 C 0.519531 -0.804688 0.375 -1.273438 0.375 -1.859375 Z M 1.21875 -1.8125 C 1.21875 -1.457031 1.289062 -1.179688 1.4375 -0.984375 C 1.59375 -0.796875 1.828125 -0.703125 2.140625 -0.703125 C 2.453125 -0.703125 2.679688 -0.796875 2.828125 -0.984375 C 2.972656 -1.179688 3.046875 -1.457031 3.046875 -1.8125 L 3.046875 -5.890625 C 3.046875 -6.234375 2.972656 -6.503906 2.828125 -6.703125 C 2.679688 -6.898438 2.453125 -7 2.140625 -7 C 1.828125 -7 1.59375 -6.898438 1.4375 -6.703125 C 1.289062 -6.503906 1.21875 -6.234375 1.21875 -5.890625 Z M 1.21875 -1.8125 "/></g></g></g><g fill="#737373" fill-opacity="1"><g transform="translate(220.128438, 244.09765)"><g><path d="M 2.125 -7.703125 C 2.726562 -7.703125 3.164062 -7.535156 3.4375 -7.203125 C 3.707031 -6.867188 3.84375 -6.40625 3.84375 -5.8125 L 3.84375 -4.890625 C 3.84375 -4.273438 3.695312 -3.8125 3.40625 -3.5 C 3.125 -3.1875 2.675781 -3.03125 2.0625 -3.03125 L 1.296875 -3.03125 L 1.296875 0 L 0.4375 0 L 0.4375 -7.703125 Z M 2.0625 -3.8125 C 2.382812 -3.8125 2.617188 -3.890625 2.765625 -4.046875 C 2.921875 -4.203125 3 -4.46875 3 -4.84375 L 3 -5.859375 C 3 -6.210938 2.929688 -6.476562 2.796875 -6.65625 C 2.660156 -6.832031 2.4375 -6.921875 2.125 -6.921875 L 1.296875 -6.921875 L 1.296875 -3.8125 Z M 2.0625 -3.8125 "/></g></g></g><g fill="#737373" fill-opacity="1"><g transform="translate(228.606592, 244.09765)"><g><path d="M 3.171875 -4.296875 L 3.171875 -3.515625 L 1.296875 -3.515625 L 1.296875 -0.78125 L 3.609375 -0.78125 L 3.609375 0 L 0.4375 0 L 0.4375 -7.703125 L 3.609375 -7.703125 L 3.609375 -6.921875 L 1.296875 -6.921875 L 1.296875 -4.296875 Z M 3.171875 -4.296875 "/></g></g></g><g fill="#737373" fill-opacity="1"><g transform="translate(236.963834, 244.09765)"><g><path d="M 2.15625 -7.703125 C 2.757812 -7.703125 3.195312 -7.550781 3.46875 -7.25 C 3.738281 -6.945312 3.875 -6.507812 3.875 -5.9375 L 3.875 -5.3125 C 3.875 -4.882812 3.796875 -4.539062 3.640625 -4.28125 C 3.484375 -4.019531 3.242188 -3.835938 2.921875 -3.734375 C 3.265625 -3.628906 3.507812 -3.4375 3.65625 -3.15625 C 3.8125 -2.882812 3.890625 -2.539062 3.890625 -2.125 L 3.890625 -0.921875 C 3.890625 -0.753906 3.894531 -0.59375 3.90625 -0.4375 C 3.914062 -0.28125 3.957031 -0.132812 4.03125 0 L 3.171875 0 C 3.117188 -0.113281 3.082031 -0.234375 3.0625 -0.359375 C 3.039062 -0.484375 3.03125 -0.675781 3.03125 -0.9375 L 3.03125 -2.140625 C 3.03125 -2.578125 2.929688 -2.875 2.734375 -3.03125 C 2.535156 -3.195312 2.257812 -3.28125 1.90625 -3.28125 L 1.296875 -3.28125 L 1.296875 0 L 0.4375 0 L 0.4375 -7.703125 Z M 1.9375 -4.0625 C 2.28125 -4.0625 2.546875 -4.132812 2.734375 -4.28125 C 2.929688 -4.425781 3.03125 -4.707031 3.03125 -5.125 L 3.03125 -5.859375 C 3.03125 -6.210938 2.960938 -6.476562 2.828125 -6.65625 C 2.691406 -6.832031 2.460938 -6.921875 2.140625 -6.921875 L 1.296875 -6.921875 L 1.296875 -4.0625 Z M 1.9375 -4.0625 "/></g></g></g></svg>