<svg xmlns="http://www.w3.org/2000/svg" xmlns:xlink="http://www.w3.org/1999/xlink" width="760" zoomAndPan="magnify" viewBox="0 0 570 574.499983" height="766" preserveAspectRatio="xMidYMid meet" version="1.0"><defs><g/><clipPath id="ee56cba995"><path d="M 0.246094 0 L 569.75 0 L 569.75 574 L 0.246094 574 Z M 0.246094 0 " clip-rule="nonzero"/></clipPath></defs><g clip-path="url(#ee56cba995)"><path fill="#ffffff" d="M 0.246094 0 L 569.753906 0 L 569.753906 574 L 0.246094 574 Z M 0.246094 0 " fill-opacity="1" fill-rule="nonzero"/><path fill="#ffffff" d="M 0.246094 0 L 569.753906 0 L 569.753906 574 L 0.246094 574 Z M 0.246094 0 " fill-opacity="1" fill-rule="nonzero"/></g><g fill="#000000" fill-opacity="1"><g transform="translate(234.434763, 321.73996)"><g><path d="M 32.410156 -60.808594 L 34.414062 -96.890625 C 34.414062 -100.898438 35.082031 -102.234375 35.414062 -105.578125 L 36.417969 -126.960938 C 36.417969 -128.296875 36.417969 -129.96875 36.417969 -131.636719 L 37.753906 -149.011719 C 38.421875 -155.359375 38.089844 -163.378906 38.421875 -168.054688 C 38.421875 -171.0625 37.753906 -182.753906 37.417969 -185.761719 C 36.082031 -191.109375 34.746094 -198.792969 29.066406 -198.792969 C 22.050781 -198.792969 14.699219 -177.742188 13.363281 -172.398438 C 12.695312 -168.722656 10.355469 -161.707031 15.367188 -161.707031 C 17.375 -161.707031 17.707031 -163.378906 17.707031 -164.378906 C 17.375 -167.050781 16.371094 -164.378906 17.375 -168.722656 C 18.042969 -172.734375 24.390625 -190.441406 29.066406 -192.109375 L 30.070312 -178.746094 C 30.070312 -164.378906 27.398438 -152.019531 27.0625 -138.320312 C 27.0625 -133.976562 27.0625 -132.640625 26.726562 -128.296875 L 21.71875 -55.460938 C 21.71875 -52.121094 22.050781 -47.777344 21.71875 -44.769531 L 20.714844 -4.007812 C 20.714844 -0.667969 21.382812 -3.339844 21.046875 -0.335938 C 20.046875 10.355469 20.714844 23.722656 20.714844 35.082031 C 22.71875 36.082031 24.054688 36.75 25.058594 36.75 C 30.070312 36.75 29.066406 28.066406 29.734375 23.054688 C 30.402344 16.035156 30.070312 8.351562 30.738281 2.003906 C 34.414062 -40.09375 47.441406 -94.21875 65.152344 -131.972656 C 66.488281 -134.308594 67.15625 -136.316406 68.492188 -138.988281 C 73.835938 -151.351562 102.570312 -205.808594 117.605469 -205.808594 C 124.289062 -205.808594 122.949219 -191.777344 107.917969 -162.042969 C 104.574219 -155.359375 101.566406 -148.675781 97.894531 -141.996094 L 92.546875 -131.972656 C 88.871094 -123.617188 83.527344 -115.601562 79.515625 -107.582031 L 70.832031 -92.882812 C 70.164062 -90.542969 69.492188 -89.875 68.492188 -88.203125 C 62.144531 -78.847656 57.132812 -69.160156 51.785156 -59.136719 C 48.78125 -54.460938 44.101562 -49.449219 44.101562 -43.433594 C 44.101562 -40.761719 46.773438 -40.09375 48.78125 -40.09375 C 52.121094 -40.09375 55.796875 -43.433594 58.132812 -44.769531 C 66.820312 -49.449219 79.515625 -54.792969 90.875 -54.792969 C 95.886719 -54.792969 100.898438 -53.789062 104.910156 -51.117188 C 119.609375 -42.097656 120.945312 -22.386719 115.601562 -6.015625 C 114.597656 -4.007812 113.929688 -2.671875 112.925781 -0.667969 C 104.910156 19.378906 77.511719 39.757812 57.800781 47.777344 C 45.105469 52.453125 32.074219 55.460938 18.375 56.464844 C 17.039062 56.464844 15.703125 56.464844 14.03125 56.464844 C 10.355469 56.464844 6.683594 56.796875 6.683594 60.808594 C 6.683594 64.148438 9.355469 64.480469 12.027344 64.480469 C 13.363281 64.480469 14.367188 64.480469 15.367188 64.480469 C 28.734375 63.144531 37.417969 63.480469 50.449219 59.136719 C 54.125 58.132812 56.464844 57.464844 60.140625 55.796875 C 62.8125 55.128906 62.476562 54.792969 65.152344 53.789062 C 71.5 51.785156 76.511719 48.109375 82.191406 44.4375 C 91.878906 38.421875 93.550781 35.414062 100.898438 29.734375 C 103.574219 27.730469 104.910156 25.058594 107.582031 22.71875 C 118.941406 11.359375 127.628906 -8.6875 127.628906 -24.722656 C 127.628906 -33.746094 122.949219 -49.78125 114.265625 -54.792969 C 112.59375 -56.128906 111.257812 -57.464844 109.585938 -58.46875 C 103.90625 -61.476562 97.558594 -62.8125 90.875 -62.8125 C 79.515625 -62.8125 67.488281 -58.800781 58.800781 -54.125 C 59.472656 -57.464844 75.507812 -82.523438 78.847656 -88.203125 C 84.863281 -98.894531 93.214844 -111.925781 98.226562 -123.285156 C 104.574219 -136.984375 114.597656 -153.019531 120.277344 -168.722656 C 123.285156 -177.074219 123.953125 -177.074219 127.628906 -188.433594 C 132.304688 -203.804688 128.296875 -214.496094 118.941406 -214.496094 C 114.597656 -214.496094 108.585938 -211.824219 102.234375 -206.144531 C 101.566406 -205.476562 101.902344 -205.808594 101.234375 -205.140625 L 98.226562 -202.132812 C 83.527344 -184.09375 73.503906 -167.050781 63.144531 -146.339844 C 61.808594 -144 61.476562 -142.996094 60.472656 -140.660156 L 48.445312 -111.257812 C 45.105469 -103.238281 42.765625 -94.886719 40.09375 -86.867188 L 33.746094 -62.476562 C 32.742188 -60.472656 33.078125 -61.476562 32.410156 -60.808594 Z M 32.410156 -60.808594 "/></g></g></g><g fill="#000000" fill-opacity="1"><g transform="translate(164.819841, 415.940643)"><g><path d="M 0.851562 0 L 0.851562 -15.621094 L 2.871094 -15.621094 C 4.230469 -15.621094 5.292969 -15.367188 5.992188 -14.707031 C 6.695312 -14.050781 7.054688 -13.027344 7.054688 -11.476562 C 7.054688 -10.734375 6.992188 -10.179688 6.757812 -9.671875 C 6.523438 -9.160156 6.164062 -8.734375 5.632812 -8.246094 C 6.207031 -7.925781 6.632812 -7.332031 6.972656 -6.332031 C 7.140625 -5.84375 7.226562 -5.207031 7.226562 -4.421875 C 7.226562 -3.25 7.015625 -2.210938 6.484375 -1.402344 C 5.949219 -0.59375 5.039062 -0.0625 3.675781 0 Z M 3.144531 -9.183594 C 3.335938 -9.183594 3.78125 -9.160156 4.164062 -9.414062 C 4.546875 -9.671875 4.847656 -10.179688 4.847656 -11.265625 C 4.847656 -12.347656 4.546875 -12.859375 4.164062 -13.113281 C 3.78125 -13.367188 3.335938 -13.347656 3.144531 -13.347656 Z M 3.144531 -2.273438 C 3.335938 -2.273438 3.78125 -2.230469 4.164062 -2.507812 C 4.546875 -2.785156 4.847656 -3.402344 4.847656 -4.675781 C 4.847656 -5.949219 4.546875 -6.566406 4.164062 -6.84375 C 3.78125 -7.121094 3.335938 -7.078125 3.144531 -7.078125 Z M 3.144531 -2.273438 "/></g></g></g><g fill="#000000" fill-opacity="1"><g transform="translate(185.311492, 415.940643)"><g><path d="M 0.210938 0 L 2.570312 -15.621094 L 5.378906 -15.621094 L 7.738281 0 L 5.503906 0 L 5.078125 -3.1875 L 2.871094 -3.1875 L 2.445312 0 Z M 4.101562 -10.542969 L 4.039062 -10.945312 L 3.910156 -10.945312 L 3.847656 -10.542969 L 3.1875 -5.609375 L 4.761719 -5.609375 Z M 4.101562 -10.542969 "/></g></g></g><g fill="#000000" fill-opacity="1"><g transform="translate(206.01563, 415.940643)"><g><path d="M 0.851562 -15.621094 L 3.144531 -15.621094 L 3.144531 -2.125 L 6.183594 -2.125 L 6.183594 0 L 0.851562 0 Z M 0.851562 -15.621094 "/></g></g></g><g fill="#000000" fill-opacity="1"><g transform="translate(225.041063, 415.940643)"><g><path d="M 0.210938 0 L 2.570312 -15.621094 L 5.378906 -15.621094 L 7.738281 0 L 5.503906 0 L 5.078125 -3.1875 L 2.871094 -3.1875 L 2.445312 0 Z M 4.101562 -10.542969 L 4.039062 -10.945312 L 3.910156 -10.945312 L 3.847656 -10.542969 L 3.1875 -5.609375 L 4.761719 -5.609375 Z M 4.101562 -10.542969 "/></g></g></g><g fill="#000000" fill-opacity="1"><g transform="translate(245.745199, 415.940643)"><g><path d="M 0.128906 -2.105469 C 0.574219 -2.039062 0.914062 -2.148438 1.167969 -2.488281 C 1.296875 -2.636719 1.359375 -2.890625 1.359375 -3.25 L 1.359375 -15.621094 L 3.65625 -15.621094 L 3.65625 -2.890625 C 3.65625 -2.039062 3.441406 -1.253906 2.910156 -0.679688 C 2.378906 -0.105469 1.488281 0.234375 0.128906 0.148438 Z M 0.128906 -2.105469 "/></g></g></g><g fill="#000000" fill-opacity="1"><g transform="translate(262.900656, 415.940643)"><g><path d="M 0.851562 -15.621094 L 3.144531 -15.621094 L 3.144531 0 L 0.851562 0 Z M 0.851562 -15.621094 "/></g></g></g><g fill="#000000" fill-opacity="1"><g transform="translate(279.65236, 415.940643)"><g/></g></g><g fill="#000000" fill-opacity="1"><g transform="translate(295.681583, 415.940643)"><g><path d="M 0.851562 0 L 0.851562 -15.621094 L 2.871094 -15.621094 C 4.230469 -15.621094 5.292969 -15.367188 5.992188 -14.707031 C 6.695312 -14.050781 7.054688 -13.027344 7.054688 -11.476562 C 7.054688 -10.734375 6.992188 -10.179688 6.757812 -9.671875 C 6.523438 -9.160156 6.164062 -8.734375 5.632812 -8.246094 C 6.207031 -7.925781 6.632812 -7.332031 6.972656 -6.332031 C 7.140625 -5.84375 7.226562 -5.207031 7.226562 -4.421875 C 7.226562 -3.25 7.015625 -2.210938 6.484375 -1.402344 C 5.949219 -0.59375 5.039062 -0.0625 3.675781 0 Z M 3.144531 -9.183594 C 3.335938 -9.183594 3.78125 -9.160156 4.164062 -9.414062 C 4.546875 -9.671875 4.847656 -10.179688 4.847656 -11.265625 C 4.847656 -12.347656 4.546875 -12.859375 4.164062 -13.113281 C 3.78125 -13.367188 3.335938 -13.347656 3.144531 -13.347656 Z M 3.144531 -2.273438 C 3.335938 -2.273438 3.78125 -2.230469 4.164062 -2.507812 C 4.546875 -2.785156 4.847656 -3.402344 4.847656 -4.675781 C 4.847656 -5.949219 4.546875 -6.566406 4.164062 -6.84375 C 3.78125 -7.121094 3.335938 -7.078125 3.144531 -7.078125 Z M 3.144531 -2.273438 "/></g></g></g><g fill="#000000" fill-opacity="1"><g transform="translate(316.173241, 415.940643)"><g><path d="M 6.824219 -3.210938 C 6.800781 -2.570312 6.671875 -1.996094 6.441406 -1.507812 C 6.25 -1.082031 5.949219 -0.679688 5.527344 -0.359375 C 5.101562 -0.0195312 4.527344 0.171875 3.761719 0.171875 C 2.996094 0.171875 2.402344 -0.0195312 1.976562 -0.359375 C 1.550781 -0.679688 1.273438 -1.082031 1.082031 -1.507812 C 0.851562 -1.996094 0.722656 -2.570312 0.703125 -3.210938 L 0.703125 -12.414062 C 0.722656 -13.027344 0.851562 -13.601562 1.082031 -14.089844 C 1.273438 -14.515625 1.550781 -14.941406 1.976562 -15.261719 C 2.402344 -15.578125 2.996094 -15.792969 3.761719 -15.792969 C 4.527344 -15.792969 5.101562 -15.578125 5.527344 -15.261719 C 5.949219 -14.941406 6.25 -14.515625 6.441406 -14.089844 C 6.671875 -13.601562 6.800781 -13.027344 6.824219 -12.414062 Z M 4.527344 -12.414062 C 4.527344 -12.835938 4.441406 -13.136719 4.230469 -13.390625 C 4.125 -13.496094 3.953125 -13.558594 3.761719 -13.558594 C 3.359375 -13.558594 3.167969 -13.261719 3.082031 -12.984375 C 3.019531 -12.816406 2.996094 -12.625 2.996094 -12.414062 L 2.996094 -3.210938 C 2.996094 -2.761719 3.101562 -2.464844 3.316406 -2.230469 C 3.421875 -2.125 3.570312 -2.0625 3.761719 -2.0625 C 4.164062 -2.0625 4.355469 -2.316406 4.441406 -2.636719 C 4.503906 -2.785156 4.527344 -2.976562 4.527344 -3.210938 Z M 4.527344 -12.414062 "/></g></g></g><g fill="#000000" fill-opacity="1"><g transform="translate(336.452394, 415.940643)"><g><path d="M 3.273438 -8.140625 L 3.082031 -8.863281 L 2.953125 -8.863281 L 2.953125 0 L 0.851562 0 L 0.851562 -15.621094 L 2.890625 -15.621094 L 5.121094 -7.480469 L 5.3125 -6.757812 L 5.441406 -6.757812 L 5.441406 -15.621094 L 7.546875 -15.621094 L 7.546875 0 L 5.503906 0 Z M 3.273438 -8.140625 "/></g></g></g><g fill="#000000" fill-opacity="1"><g transform="translate(357.602784, 415.940643)"><g><path d="M 0.210938 0 L 2.570312 -15.621094 L 5.378906 -15.621094 L 7.738281 0 L 5.503906 0 L 5.078125 -3.1875 L 2.871094 -3.1875 L 2.445312 0 Z M 4.101562 -10.542969 L 4.039062 -10.945312 L 3.910156 -10.945312 L 3.847656 -10.542969 L 3.1875 -5.609375 L 4.761719 -5.609375 Z M 4.101562 -10.542969 "/></g></g></g><g fill="#000000" fill-opacity="1"><g transform="translate(378.306928, 415.940643)"><g><path d="M 4.527344 -10.011719 L 4.527344 -12.414062 C 4.527344 -12.835938 4.441406 -13.136719 4.230469 -13.390625 C 4.125 -13.496094 3.953125 -13.558594 3.761719 -13.558594 C 3.359375 -13.558594 3.167969 -13.261719 3.082031 -12.984375 C 3.019531 -12.816406 2.996094 -12.625 2.996094 -12.414062 L 2.996094 -3.019531 C 2.996094 -2.570312 3.101562 -2.273438 3.316406 -2.039062 C 3.421875 -1.933594 3.570312 -1.871094 3.761719 -1.871094 C 4.164062 -1.871094 4.355469 -2.125 4.441406 -2.445312 C 4.503906 -2.59375 4.527344 -2.785156 4.527344 -3.019531 L 4.527344 -5.84375 L 3.613281 -5.84375 L 3.613281 -7.777344 L 6.824219 -7.777344 L 6.824219 0 L 5.460938 0 L 5.1875 -0.742188 C 4.761719 -0.210938 4.144531 0.171875 3.402344 0.171875 C 2.65625 0.171875 2.148438 -0.0195312 1.765625 -0.359375 C 1.382812 -0.679688 1.125 -1.082031 0.957031 -1.507812 C 0.765625 -1.996094 0.679688 -2.570312 0.703125 -3.210938 L 0.703125 -12.414062 C 0.722656 -13.027344 0.851562 -13.601562 1.082031 -14.089844 C 1.273438 -14.515625 1.550781 -14.941406 1.976562 -15.261719 C 2.402344 -15.578125 2.996094 -15.792969 3.761719 -15.792969 C 4.527344 -15.792969 5.101562 -15.578125 5.527344 -15.261719 C 5.949219 -14.941406 6.25 -14.515625 6.441406 -14.089844 C 6.671875 -13.601562 6.800781 -13.027344 6.824219 -12.414062 L 6.824219 -10.011719 Z M 4.527344 -10.011719 "/></g></g></g><g fill="#000000" fill-opacity="1"><g transform="translate(398.713581, 415.940643)"><g><path d="M 0.851562 -15.621094 L 6.101562 -15.621094 L 6.101562 -13.261719 L 3.144531 -13.261719 L 3.144531 -9.160156 L 5.269531 -9.160156 L 5.269531 -6.652344 L 3.144531 -6.652344 L 3.144531 -2.359375 L 6.101562 -2.359375 L 6.101562 0 L 0.851562 0 Z M 0.851562 -15.621094 "/></g></g></g><g fill="#000000" fill-opacity="1"><g transform="translate(417.993999, 415.940643)"><g><path d="M 4.953125 0 L 3.761719 -6.589844 L 3.144531 -6.589844 L 3.144531 0 L 0.851562 0 L 0.851562 -15.621094 L 3.144531 -15.621094 C 5.886719 -15.621094 7.054688 -14.070312 7.054688 -11.117188 C 7.054688 -9.5625 6.652344 -8.160156 5.78125 -7.566406 L 7.246094 0 Z M 3.144531 -8.714844 C 3.464844 -8.714844 3.890625 -8.757812 4.230469 -9.054688 C 4.570312 -9.351562 4.847656 -9.925781 4.847656 -11.03125 C 4.847656 -12.136719 4.570312 -12.730469 4.230469 -13.027344 C 3.890625 -13.328125 3.464844 -13.347656 3.144531 -13.347656 Z M 3.144531 -8.714844 "/></g></g></g><g fill="#000000" fill-opacity="1"><g transform="translate(438.421907, 415.940643)"><g><path d="M 0.851562 -15.621094 L 3.144531 -15.621094 L 3.144531 0 L 0.851562 0 Z M 0.851562 -15.621094 "/></g></g></g></svg>