<svg xmlns="http://www.w3.org/2000/svg" xmlns:xlink="http://www.w3.org/1999/xlink" width="500" zoomAndPan="magnify" viewBox="0 0 375 374.999991" height="500" preserveAspectRatio="xMidYMid meet" version="1.0"><defs><clipPath id="1d7d390f4b"><path d="M 207 153 L 253.742188 153 L 253.742188 222 L 207 222 Z M 207 153 " clip-rule="nonzero"/></clipPath><clipPath id="419c3b7bd7"><path d="M 164 135.867188 L 210 135.867188 L 210 239.367188 L 164 239.367188 Z M 164 135.867188 " clip-rule="nonzero"/></clipPath></defs><rect x="-37.5" width="450" fill="#ffffff" y="-37.499999" height="449.999989" fill-opacity="1"/><rect x="-37.5" width="450" fill="#ffffff" y="-37.499999" height="449.999989" fill-opacity="1"/><rect x="-37.5" width="450" fill="#171810" y="-37.499999" height="449.999989" fill-opacity="1"/><path fill="#03fa6e" d="M 162.871094 220.25 C 162.136719 220.25 161.414062 220.003906 160.839844 219.542969 L 123.710938 190.207031 C 122.914062 189.578125 122.457031 188.632812 122.457031 187.617188 C 122.457031 186.597656 122.914062 185.652344 123.707031 185.015625 L 160.839844 155.6875 C 161.414062 155.226562 162.136719 154.980469 162.871094 154.980469 C 163.886719 154.980469 164.832031 155.433594 165.453125 156.238281 C 165.996094 156.929688 166.242188 157.796875 166.136719 158.667969 C 166.035156 159.546875 165.59375 160.328125 164.90625 160.875 L 131.066406 187.617188 L 164.90625 214.351562 C 165.59375 214.902344 166.035156 215.683594 166.136719 216.554688 C 166.242188 217.433594 165.996094 218.292969 165.453125 218.992188 C 164.832031 219.789062 163.886719 220.25 162.871094 220.25 " fill-opacity="1" fill-rule="nonzero"/><path fill="#2a446b" d="M 162.871094 153.574219 C 161.824219 153.574219 160.800781 153.925781 159.976562 154.578125 L 122.84375 183.914062 C 121.703125 184.820312 121.054688 186.164062 121.054688 187.617188 C 121.054688 189.066406 121.710938 190.417969 122.84375 191.316406 L 159.976562 220.652344 C 160.792969 221.296875 161.824219 221.65625 162.871094 221.65625 C 164.324219 221.65625 165.667969 221 166.558594 219.859375 C 167.335938 218.875 167.679688 217.640625 167.53125 216.394531 C 167.382812 215.144531 166.757812 214.023438 165.773438 213.25 L 133.332031 187.617188 L 165.773438 161.980469 C 166.757812 161.199219 167.382812 160.085938 167.53125 158.839844 C 167.679688 157.589844 167.335938 156.355469 166.558594 155.367188 C 165.667969 154.226562 164.316406 153.574219 162.871094 153.574219 Z M 162.871094 156.386719 C 163.433594 156.386719 163.988281 156.632812 164.355469 157.105469 C 165.007812 157.933594 164.859375 159.125 164.042969 159.773438 L 128.796875 187.617188 L 164.042969 215.460938 C 164.859375 216.105469 165.007812 217.296875 164.355469 218.121094 C 163.988281 218.597656 163.433594 218.84375 162.871094 218.84375 C 162.464844 218.84375 162.054688 218.714844 161.707031 218.441406 L 124.574219 189.105469 C 124.121094 188.746094 123.855469 188.195312 123.855469 187.617188 C 123.855469 187.03125 124.121094 186.484375 124.574219 186.125 L 161.707031 156.789062 C 162.046875 156.515625 162.464844 156.386719 162.871094 156.386719 " fill-opacity="1" fill-rule="nonzero"/><path fill="#03fa6e" d="M 211.863281 220.25 C 210.847656 220.25 209.90625 219.789062 209.273438 218.992188 C 208.152344 217.5625 208.398438 215.480469 209.828125 214.351562 L 243.671875 187.617188 L 209.828125 160.875 C 208.398438 159.75 208.152344 157.667969 209.273438 156.238281 C 209.90625 155.433594 210.847656 154.980469 211.863281 154.980469 C 212.59375 154.980469 213.316406 155.226562 213.894531 155.6875 L 251.027344 185.015625 C 251.820312 185.652344 252.277344 186.597656 252.277344 187.617188 C 252.277344 188.632812 251.820312 189.578125 251.019531 190.207031 L 213.894531 219.542969 C 213.316406 220.003906 212.59375 220.25 211.863281 220.25 " fill-opacity="1" fill-rule="nonzero"/><g clip-path="url(#1d7d390f4b)"><path fill="#2a446b" d="M 211.863281 153.574219 C 210.417969 153.574219 209.070312 154.226562 208.175781 155.367188 C 206.574219 157.410156 206.925781 160.375 208.960938 161.980469 L 241.402344 187.617188 L 208.960938 213.25 C 206.925781 214.851562 206.574219 217.820312 208.175781 219.859375 C 209.070312 221 210.417969 221.65625 211.863281 221.65625 C 212.910156 221.65625 213.933594 221.296875 214.757812 220.652344 L 251.890625 191.316406 C 253.027344 190.417969 253.675781 189.066406 253.675781 187.617188 C 253.675781 186.164062 253.027344 184.820312 251.894531 183.914062 L 214.761719 154.578125 C 213.941406 153.925781 212.910156 153.574219 211.863281 153.574219 Z M 211.863281 156.386719 C 212.269531 156.386719 212.683594 156.515625 213.027344 156.789062 L 250.160156 186.125 C 250.613281 186.484375 250.875 187.03125 250.875 187.617188 C 250.875 188.195312 250.613281 188.746094 250.160156 189.105469 L 213.027344 218.441406 C 212.683594 218.714844 212.269531 218.84375 211.863281 218.84375 C 211.300781 218.84375 210.746094 218.597656 210.378906 218.121094 C 209.734375 217.296875 209.875 216.105469 210.691406 215.460938 L 245.933594 187.617188 L 210.691406 159.773438 C 209.875 159.125 209.734375 157.933594 210.378906 157.105469 C 210.746094 156.632812 211.308594 156.386719 211.863281 156.386719 " fill-opacity="1" fill-rule="nonzero"/></g><path fill="#03fa6e" d="M 168.914062 237.953125 C 168.507812 237.953125 168.109375 237.875 167.726562 237.730469 C 166.910156 237.40625 166.261719 236.789062 165.90625 235.984375 C 165.550781 235.175781 165.53125 234.28125 165.847656 233.460938 L 202.109375 139.386719 C 202.597656 138.125 203.828125 137.277344 205.171875 137.277344 C 205.582031 137.277344 205.984375 137.355469 206.367188 137.503906 C 208.050781 138.160156 208.898438 140.078125 208.242188 141.777344 L 171.984375 235.84375 C 171.5 237.105469 170.261719 237.953125 168.914062 237.953125 " fill-opacity="1" fill-rule="nonzero"/><g clip-path="url(#419c3b7bd7)"><path fill="#2a446b" d="M 205.171875 135.871094 C 203.253906 135.871094 201.492188 137.085938 200.804688 138.878906 L 164.542969 232.949219 C 164.09375 234.121094 164.121094 235.398438 164.625 236.554688 C 165.136719 237.699219 166.054688 238.589844 167.222656 239.039062 C 167.765625 239.253906 168.332031 239.359375 168.914062 239.359375 C 170.835938 239.359375 172.597656 238.152344 173.289062 236.351562 L 209.546875 142.285156 C 210.484375 139.859375 209.28125 137.125 206.863281 136.191406 C 206.328125 135.976562 205.757812 135.871094 205.171875 135.871094 Z M 205.171875 138.683594 C 205.402344 138.683594 205.632812 138.730469 205.855469 138.8125 C 206.832031 139.191406 207.3125 140.285156 206.9375 141.265625 L 170.675781 235.332031 C 170.390625 236.085938 169.671875 236.546875 168.914062 236.546875 C 168.6875 236.546875 168.457031 236.507812 168.234375 236.417969 C 167.257812 236.042969 166.777344 234.9375 167.15625 233.964844 L 203.414062 139.898438 C 203.707031 139.144531 204.417969 138.683594 205.171875 138.683594 " fill-opacity="1" fill-rule="nonzero"/></g></svg>